<svg width="797" height="762" viewBox="0 0 797 762" fill="none" xmlns="http://www.w3.org/2000/svg">
  <g opacity="0.12">
    <path fill-rule="evenodd" clip-rule="evenodd" d="M350.593 9.95298C214.477 9.95298 104.134 120.183 104.134 256.159C104.134 392.135 214.477 502.365 350.593 502.365C486.708 502.365 597.052 392.135 597.052 256.159C597.052 120.183 486.708 9.95298 350.593 9.95298Z" stroke="#7D7B7B" stroke-width="1.28"/>
    <path fill-rule="evenodd" clip-rule="evenodd" d="M524.714 157.037C514.462 157.037 506.15 165.34 506.15 175.582C506.15 185.825 514.462 194.128 524.714 194.128C534.967 194.128 543.279 185.825 543.279 175.582C543.279 165.34 534.967 157.037 524.714 157.037Z" stroke="#7D7B7B" stroke-width="1.28"/>
    <path fill-rule="evenodd" clip-rule="evenodd" d="M549.681 145.526C484.628 145.526 431.892 198.207 431.892 263.193C431.892 328.179 484.628 380.86 549.681 380.86C614.733 380.86 667.469 328.179 667.469 263.193C667.469 198.207 614.733 145.526 549.681 145.526Z" stroke="#7D7B7B" stroke-width="1.28"/>
    <path fill-rule="evenodd" clip-rule="evenodd" d="M549.04 154.479C489.291 154.479 440.854 202.866 440.854 262.554C440.854 322.242 489.291 370.628 549.04 370.628C608.79 370.628 657.226 322.242 657.226 262.554C657.226 202.866 608.79 154.479 549.04 154.479Z" stroke="#7D7B7B" stroke-width="1.28"/>
    <path fill-rule="evenodd" clip-rule="evenodd" d="M671.309 539.455C657.875 539.455 646.984 550.335 646.984 563.756C646.984 577.177 657.875 588.057 671.309 588.057C684.744 588.057 695.635 577.177 695.635 563.756C695.635 550.335 684.744 539.455 671.309 539.455Z" stroke="#7D7B7B" stroke-width="1.28"/>
    <path fill-rule="evenodd" clip-rule="evenodd" d="M668.109 599.568C661.391 599.568 655.946 605.008 655.946 611.718C655.946 618.429 661.391 623.869 668.109 623.869C674.826 623.869 680.271 618.429 680.271 611.718C680.271 605.008 674.826 599.568 668.109 599.568Z" stroke="#7D7B7B" stroke-width="1.28"/>
    <path fill-rule="evenodd" clip-rule="evenodd" d="M502.949 52.1596C450.978 52.1596 408.847 94.2475 408.847 146.165C408.847 198.084 450.978 240.171 502.949 240.171C554.921 240.171 597.052 198.084 597.052 146.165C597.052 94.2475 554.921 52.1596 502.949 52.1596Z" stroke="#7D7B7B" stroke-width="1.28"/>
    <path fill-rule="evenodd" clip-rule="evenodd" d="M502.949 43.2067C445.674 43.2067 399.244 89.5892 399.244 146.805C399.244 204.021 445.674 250.403 502.949 250.403C560.224 250.403 606.654 204.021 606.654 146.805C606.654 89.5892 560.224 43.2067 502.949 43.2067Z" stroke="#7D7B7B" stroke-width="1.28"/>
    <path fill-rule="evenodd" clip-rule="evenodd" d="M397.324 229.94C311.766 229.94 242.407 299.227 242.407 384.698C242.407 470.168 311.766 539.456 397.324 539.456C482.882 539.456 552.241 470.168 552.241 384.698C552.241 299.227 482.882 229.94 397.324 229.94Z" stroke="#7D7B7B" stroke-width="1.28"/>
    <path fill-rule="evenodd" clip-rule="evenodd" d="M397.324 361.676C383.182 361.676 371.718 373.128 371.718 387.255C371.718 401.383 383.182 412.835 397.324 412.835C411.466 412.835 422.93 401.383 422.93 387.255C422.93 373.128 411.466 361.676 397.324 361.676Z" stroke="#7D7B7B" stroke-width="1.28"/>
    <path fill-rule="evenodd" clip-rule="evenodd" d="M397.324 342.491C373.283 342.491 353.794 361.96 353.794 385.976C353.794 409.993 373.283 429.462 397.324 429.462C421.365 429.462 440.854 409.993 440.854 385.976C440.854 361.96 421.365 342.491 397.324 342.491Z" stroke="#7D7B7B" stroke-width="1.28"/>
    <path fill-rule="evenodd" clip-rule="evenodd" d="M397.324 240.172C317.422 240.172 252.649 304.878 252.649 384.698C252.649 464.517 317.422 529.224 397.324 529.224C477.226 529.224 541.999 464.517 541.999 384.698C541.999 304.878 477.226 240.172 397.324 240.172Z" stroke="#7D7B7B" stroke-width="1.28"/>
    <path fill-rule="evenodd" clip-rule="evenodd" d="M474.142 407.719C382.22 407.719 307.702 482.16 307.702 573.988C307.702 665.816 382.22 740.257 474.142 740.257C566.064 740.257 640.582 665.816 640.582 573.988C640.582 482.16 566.064 407.719 474.142 407.719Z" stroke="#7D7B7B" stroke-width="1.28"/>
    <path fill-rule="evenodd" clip-rule="evenodd" d="M473.502 567.593C470.32 567.593 467.741 570.17 467.741 573.349C467.741 576.527 470.32 579.104 473.502 579.104C476.684 579.104 479.264 576.527 479.264 573.349C479.264 570.17 476.684 567.593 473.502 567.593Z" stroke="#7D7B7B" stroke-width="1.28"/>
    <path fill-rule="evenodd" clip-rule="evenodd" d="M472.862 529.223C448.821 529.223 429.332 548.693 429.332 572.709C429.332 596.726 448.821 616.195 472.862 616.195C496.903 616.195 516.393 596.726 516.393 572.709C516.393 548.693 496.903 529.223 472.862 529.223Z" stroke="#7D7B7B" stroke-width="1.28"/>
    <path fill-rule="evenodd" clip-rule="evenodd" d="M473.502 416.672C386.883 416.672 316.665 486.819 316.665 573.349C316.665 659.879 386.883 730.025 473.502 730.025C560.121 730.025 630.34 659.879 630.34 573.349C630.34 486.819 560.121 416.672 473.502 416.672Z" stroke="#7D7B7B" stroke-width="1.28"/>
    <path fill-rule="evenodd" clip-rule="evenodd" d="M473.502 460.158C410.924 460.158 360.195 510.835 360.195 573.349C360.195 635.862 410.924 686.54 473.502 686.54C536.08 686.54 586.809 635.862 586.809 573.349C586.809 510.835 536.08 460.158 473.502 460.158Z" stroke="#7D7B7B" stroke-width="1.28"/>
    <path fill-rule="evenodd" clip-rule="evenodd" d="M472.862 487.017C425.487 487.017 387.082 525.383 387.082 572.709C387.082 620.036 425.487 658.402 472.862 658.402C520.237 658.402 558.643 620.036 558.643 572.709C558.643 525.383 520.237 487.017 472.862 487.017Z" stroke="#7D7B7B" stroke-width="1.28"/>
    <path fill-rule="evenodd" clip-rule="evenodd" d="M577.847 229.94C492.289 229.94 422.93 299.227 422.93 384.698C422.93 470.168 492.289 539.456 577.847 539.456C663.405 539.456 732.764 470.168 732.764 384.698C732.764 299.227 663.405 229.94 577.847 229.94Z" stroke="#7D7B7B" stroke-width="1.28"/>
    <path fill-rule="evenodd" clip-rule="evenodd" d="M577.847 361.676C563.705 361.676 552.241 373.128 552.241 387.255C552.241 401.383 563.705 412.835 577.847 412.835C591.989 412.835 603.453 401.383 603.453 387.255C603.453 373.128 591.989 361.676 577.847 361.676Z" stroke="#7D7B7B" stroke-width="1.28"/>
    <path fill-rule="evenodd" clip-rule="evenodd" d="M577.847 342.491C553.806 342.491 534.317 361.96 534.317 385.976C534.317 409.993 553.806 429.462 577.847 429.462C601.888 429.462 621.377 409.993 621.377 385.976C621.377 361.96 601.888 342.491 577.847 342.491Z" stroke="#7D7B7B" stroke-width="1.28"/>
    <path fill-rule="evenodd" clip-rule="evenodd" d="M577.847 240.172C497.945 240.172 433.172 304.878 433.172 384.698C433.172 464.517 497.945 529.224 577.847 529.224C657.748 529.224 722.521 464.517 722.521 384.698C722.521 304.878 657.748 240.172 577.847 240.172Z" stroke="#7D7B7B" stroke-width="1.28"/>
    <path fill-rule="evenodd" clip-rule="evenodd" d="M216.801 229.94C131.242 229.94 61.8837 299.227 61.8837 384.698C61.8837 470.168 131.242 539.456 216.801 539.456C302.359 539.456 371.718 470.168 371.718 384.698C371.718 299.227 302.359 229.94 216.801 229.94Z" stroke="#7D7B7B" stroke-width="1.28"/>
    <path fill-rule="evenodd" clip-rule="evenodd" d="M216.801 361.676C202.659 361.676 191.195 373.128 191.195 387.255C191.195 401.383 202.659 412.835 216.801 412.835C230.943 412.835 242.407 401.383 242.407 387.255C242.407 373.128 230.943 361.676 216.801 361.676Z" stroke="#7D7B7B" stroke-width="1.28"/>
    <path fill-rule="evenodd" clip-rule="evenodd" d="M216.801 342.491C192.76 342.491 173.271 361.96 173.271 385.976C173.271 409.993 192.76 429.462 216.801 429.462C240.842 429.462 260.331 409.993 260.331 385.976C260.331 361.96 240.842 342.491 216.801 342.491Z" stroke="#7D7B7B" stroke-width="1.28"/>
    <path fill-rule="evenodd" clip-rule="evenodd" d="M216.801 240.172C136.899 240.172 72.1262 304.878 72.1262 384.698C72.1262 464.517 136.899 529.224 216.801 529.224C296.702 529.224 361.475 464.517 361.475 384.698C361.475 304.878 296.702 240.172 216.801 240.172Z" stroke="#7D7B7B" stroke-width="1.28"/>
    <path fill-rule="evenodd" clip-rule="evenodd" d="M397.964 1.00001C187.604 1.00001 17.0732 171.356 17.0732 381.5C17.0732 591.644 187.604 762 397.964 762C608.325 762 778.855 591.644 778.855 381.5C778.855 171.356 608.325 1.00001 397.964 1.00001Z" stroke="#7D7B7B" stroke-width="1.28"/>
    <path fill-rule="evenodd" clip-rule="evenodd" d="M397.324 21.4638C198.631 21.4638 37.5579 182.371 37.5579 380.86C37.5579 579.35 198.631 740.257 397.324 740.257C596.017 740.257 757.09 579.35 757.09 380.86C757.09 182.371 596.017 21.4638 397.324 21.4638Z" stroke="#7D7B7B" stroke-width="1.28"/>
    <path fill-rule="evenodd" clip-rule="evenodd" d="M397.964 21.4639C345.639 21.4639 303.222 63.838 303.222 116.109C303.222 168.38 345.639 210.755 397.964 210.755C450.289 210.755 492.707 168.38 492.707 116.109C492.707 63.838 450.289 21.4639 397.964 21.4639Z" stroke="#7D7B7B" stroke-width="1.28"/>
    <path fill-rule="evenodd" clip-rule="evenodd" d="M291.699 31.6959C278.617 31.6959 268.013 42.2894 268.013 55.3572C268.013 68.425 278.617 79.0186 291.699 79.0186C304.78 79.0186 315.384 68.425 315.384 55.3572C315.384 42.2894 304.78 31.6959 291.699 31.6959Z" stroke="#7D7B7B" stroke-width="1.28"/>
    <path fill-rule="evenodd" clip-rule="evenodd" d="M659.787 157.037C643.523 157.037 630.34 170.207 630.34 186.454C630.34 202.7 643.523 215.871 659.787 215.871C676.05 215.871 689.234 202.7 689.234 186.454C689.234 170.207 676.05 157.037 659.787 157.037Z" stroke="#7D7B7B" stroke-width="1.28"/>
    <path fill-rule="evenodd" clip-rule="evenodd" d="M502.949 116.109C486.332 116.109 472.862 129.566 472.862 146.166C472.862 162.765 486.332 176.222 502.949 176.222C519.566 176.222 533.036 162.765 533.036 146.166C533.036 129.566 519.566 116.109 502.949 116.109Z" stroke="#7D7B7B" stroke-width="1.28"/>
    <path d="M538.972 735.257L397.964 385.976" stroke="#7D7B7B" stroke-width="1.28"/>
    <path d="M796.5 384.697L0.499975 384.697" stroke="#7D7B7B" stroke-width="1.28"/>
    <path d="M353.794 312.889V116.109H260.331" stroke="#7D7B7B" stroke-width="1.28"/>
    <path d="M778.855 262.554L17.0732 262.554" stroke="#7D7B7B" stroke-width="1.28"/>
    <path d="M473.502 572.709H407.13V730.025" stroke="#7D7B7B" stroke-width="1.28"/>
    <path fill-rule="evenodd" clip-rule="evenodd" d="M335.869 690.376C320.313 690.376 307.703 702.974 307.703 718.514C307.703 734.054 320.313 746.652 335.869 746.652C351.425 746.652 364.036 734.054 364.036 718.514C364.036 702.974 351.425 690.376 335.869 690.376Z" stroke="#7D7B7B" stroke-width="1.28"/>
    <path d="M371.718 414.674L371.718 2.02328" stroke="#7D7B7B" stroke-width="1.28"/>
  </g>
</svg>

