<svg width="796" height="245" fill="none" xmlns="http://www.w3.org/2000/svg"><g opacity=".12" clip-path="url(#clip0)" stroke="#D4D4D4" stroke-width="1.28"><path clip-rule="evenodd" d="M350.093 8.953c-136.116 0-246.459 110.23-246.459 246.206s110.343 246.206 246.459 246.206c136.115 0 246.459-110.23 246.459-246.206S486.208 8.953 350.093 8.953z"/><path clip-rule="evenodd" d="M524.214 156.037c-10.252 0-18.564 8.303-18.564 18.545 0 10.243 8.312 18.546 18.564 18.546 10.253 0 18.565-8.303 18.565-18.546 0-10.242-8.312-18.545-18.565-18.545z"/><path clip-rule="evenodd" d="M549.181 144.526c-65.053 0-117.789 52.681-117.789 117.667S484.128 379.86 549.181 379.86c65.052 0 117.788-52.681 117.788-117.667s-52.736-117.667-117.788-117.667z"/><path clip-rule="evenodd" d="M548.54 153.479c-59.749 0-108.186 48.387-108.186 108.075s48.437 108.075 108.186 108.075c59.75 0 108.186-48.387 108.186-108.075S608.29 153.479 548.54 153.479z"/><path clip-rule="evenodd" d="M502.449 51.16c-51.971 0-94.102 42.088-94.102 94.005 0 51.919 42.131 94.006 94.102 94.006 51.972 0 94.103-42.087 94.103-94.006 0-51.917-42.131-94.005-94.103-94.005z"/><path clip-rule="evenodd" d="M502.449 42.207c-57.274 0-103.705 46.382-103.705 103.598s46.431 103.598 103.705 103.598c57.275 0 103.705-46.382 103.705-103.598S559.724 42.207 502.449 42.207z"/><path clip-rule="evenodd" d="M396.824 228.939c-85.558 0-154.917 69.288-154.917 154.758 0 85.471 69.359 154.758 154.917 154.758s154.917-69.287 154.917-154.758c0-85.47-69.359-154.758-154.917-154.758z"/><path clip-rule="evenodd" d="M396.824 239.171c-79.902 0-144.675 64.707-144.675 144.526 0 79.82 64.773 144.527 144.675 144.527 79.902 0 144.675-64.707 144.675-144.527 0-79.819-64.773-144.526-144.675-144.526z"/><path clip-rule="evenodd" d="M577.347 228.939c-85.558 0-154.917 69.288-154.917 154.758 0 85.471 69.359 154.758 154.917 154.758s154.917-69.287 154.917-154.758c0-85.47-69.359-154.758-154.917-154.758z"/><path clip-rule="evenodd" d="M577.347 239.171c-79.901 0-144.674 64.707-144.674 144.526 0 79.82 64.773 144.527 144.674 144.527 79.902 0 144.675-64.707 144.675-144.527 0-79.819-64.773-144.526-144.675-144.526zM216.301 228.939c-85.559 0-154.917 69.288-154.917 154.758 0 85.471 69.358 154.758 154.917 154.758 85.558 0 154.917-69.287 154.917-154.758 0-85.47-69.359-154.758-154.917-154.758z"/><path clip-rule="evenodd" d="M216.301 239.171c-79.902 0-144.674 64.707-144.674 144.526 0 79.82 64.772 144.527 144.674 144.527s144.675-64.707 144.675-144.527c0-79.819-64.773-144.526-144.675-144.526z"/><path clip-rule="evenodd" d="M397.464 0c-210.36 0-380.89 170.356-380.89 380.5S187.103 761 397.463 761c210.361 0 380.891-170.356 380.891-380.5S607.825 0 397.464 0z"/><path clip-rule="evenodd" d="M396.824 20.464c-198.693 0-359.766 160.907-359.766 359.396 0 198.49 161.073 359.397 359.766 359.397S756.59 578.35 756.59 379.86c0-198.489-161.073-359.396-359.766-359.396z"/><path clip-rule="evenodd" d="M397.464 20.464c-52.325 0-94.742 42.374-94.742 94.645 0 52.271 42.417 94.646 94.742 94.646s94.743-42.375 94.743-94.646-42.418-94.645-94.743-94.645zM291.199 30.696c-13.082 0-23.686 10.593-23.686 23.661 0 13.068 10.604 23.661 23.686 23.661 13.081 0 23.685-10.593 23.685-23.66 0-13.069-10.604-23.662-23.685-23.662zM659.287 156.037c-16.264 0-29.447 13.17-29.447 29.417 0 16.246 13.183 29.417 29.447 29.417 16.263 0 29.447-13.171 29.447-29.417 0-16.247-13.184-29.417-29.447-29.417z"/><path clip-rule="evenodd" d="M502.449 115.109c-16.616 0-30.087 13.457-30.087 30.057 0 16.599 13.471 30.056 30.087 30.056 16.617 0 30.088-13.457 30.088-30.056 0-16.6-13.471-30.057-30.088-30.057z"/><path d="M353.293 311.889v-196.78h-93.462M371.218 413.674V1.024"/></g><defs><clipPath id="clip0"><path fill="#fff" transform="rotate(-180 398 122.5)" d="M0 0h796v245H0z"/></clipPath></defs></svg>
