<svg width="88" height="88" viewBox="0 0 88 88" fill="none" xmlns="http://www.w3.org/2000/svg">
<path d="M43.9998 70.6083V84.0008L4 65.0166M28.5 33.499L25.4285 31.7942L4 21.624V48.3203" stroke="#0A1826" stroke-width="2" stroke-linecap="round" stroke-linejoin="round"/>
<path d="M83.9997 21.6279L41.7776 4L4 21.6279" stroke="#0A1826" stroke-width="2" stroke-linecap="round" stroke-linejoin="round"/>
<path d="M44.0002 70.6092V84.0018L84 65.0175V21.625L71.5 27.5576" stroke="#0A1826" stroke-width="2" stroke-linecap="round" stroke-linejoin="round"/>
<path d="M79 56.625L66.5 62.5576M79 60.625L66.5 66.5576M79 52.625L66.5 58.5576" stroke="#0A1826" stroke-width="1.5" stroke-linecap="round" stroke-linejoin="round"/>
<path d="M46.4061 32.093L35.7816 26.9806C34.7454 26.482 33.5447 26.4535 32.486 26.9023L29.9499 27.9775L39.415 35.0568M49.4171 33.8514L26.308 43.6483L22.8961 40.7383C22.608 40.4925 22.2056 40.4306 21.8569 40.5785L16.1234 43.0091L23.6128 52.3263C24.4558 53.375 25.8939 53.7341 27.1309 53.2049L44.613 45.7265L43.298 66.1863L46.1186 64.9905C46.988 64.6219 47.6331 63.8656 47.8599 62.9489L52.9796 42.2547L67.1714 36.2382C68.6857 35.5962 69.5244 33.9634 69.1643 32.3586V32.3586C68.8861 31.1189 67.9407 30.1373 66.7123 29.8127L63.2495 28.8978C62.3918 28.6712 61.4832 28.7361 60.6664 29.0823L49.4171 33.8514Z" stroke="#0A1826" stroke-width="2" stroke-linecap="round" stroke-linejoin="round"/>
<path d="M22.1372 45.0954L24.489 47.7383L21.2241 49.1864" stroke="#0A1826" stroke-width="2" stroke-linecap="round" stroke-linejoin="round"/>
<path d="M40.9491 41.4676L42.2643 40.9101M67.1358 30.3686L61.992 32.5487M46.2098 39.2379L44.8946 39.7953M56.7313 34.7784L58.251 34.1343M48.8402 38.123L50.1554 37.5656M54.1009 35.8933L52.7857 36.4507" stroke="#0A1826" stroke-width="2" stroke-linecap="round" stroke-linejoin="round"/>
<path d="M18 51L2 57.5" stroke="#0A1826" stroke-width="1.5" stroke-linecap="round" stroke-linejoin="round"/>
<path d="M15.0001 48L12.5001 49.0119M9.50012 50.2262L6.35306 51.5L3.26482 52.75L1.7207 53.375" stroke="#0A1826" stroke-width="1.5" stroke-linecap="round" stroke-linejoin="round"/>
<path d="M21 54L13.75 56.9345L10.125 58.4018M6.5 59.869L5 60.4762" stroke="#0A1826" stroke-width="1.5" stroke-linecap="round" stroke-linejoin="round"/>
</svg>
