<svg viewBox="0 0 24 24" fill="none" xmlns="http://www.w3.org/2000/svg">
  <path d="M0 12C0 5.37258 5.37258 0 12 0C18.6274 0 24 5.37258 24 12C24 18.6274 18.6274 24 12 24C5.37258 24 0 18.6274 0 12Z" fill="#ECEFF1"/>
  <path d="M7.20068 16.2009H23.2307C23.7212 14.8913 24.0002 13.4804 24.0002 11.9998C24.0002 10.5192 23.7212 9.10841 23.2307 7.79883H7.20068V16.2009Z" fill="#ECEFF1"/>
  <path d="M12.0002 0C10.2924 0 8.67003 0.362272 7.20068 1.00356V7.79899H23.2307C21.5251 3.24695 17.1486 0 12.0002 0Z" fill="#388E3C"/>
  <path d="M7.20068 22.9966C8.67003 23.6379 10.2924 24.0002 12.0002 24.0002C17.1486 24.0002 21.5251 20.7532 23.2307 16.2012H7.20068V22.9966Z" fill="#424242"/>
  <path d="M7.20045 7.79933V1.00391C2.96343 2.85802 0 7.08154 0 12.0003C0 16.9191 2.96343 21.1427 7.20045 22.9968V7.79933Z" fill="#F44336"/>
</svg>
