<svg viewBox="0 0 24 24" fill="none" xmlns="http://www.w3.org/2000/svg">
  <path d="M0 12C0 5.37258 5.37258 0 12 0C18.6274 0 24 5.37258 24 12C24 18.6274 18.6274 24 12 24C5.37258 24 0 18.6274 0 12Z" fill="#ECEFF1"/>
  <path d="M24 12C24 18.6289 18.6289 24 12 24C5.37109 24 0 18.6289 0 12C0 10.6702 0.216013 9.39209 0.614288 8.19501C1.38609 5.88637 6.29364 4.19876 6.29364 4.19876C6.29364 4.19876 6.31614 1.38384 7.1982 0.999062C8.66754 0.355522 10.2921 0 12 0C18.6289 0 24 5.37109 24 12Z" fill="#283593"/>
  <path d="M5.40021 14.4004L5.75573 15.5345L6.84255 15.1114L6.19901 16.106L7.20032 16.7158L6.0415 16.8193L6.20126 18.0006L5.40021 17.1343L4.59691 18.0006L4.75667 16.8193L3.6001 16.7158L4.59916 16.106L3.95562 15.1114L5.04244 15.5367L5.40021 14.4004Z" fill="white"/>
  <path d="M18.3004 16.2012L18.4782 16.7682L19.0227 16.5567L18.701 17.054L19.2005 17.3577L18.6222 17.4095L18.701 18.0013L18.3004 17.5693L17.8999 18.0013L17.9787 17.4095L17.4004 17.3577L17.8999 17.054L17.5782 16.5567L18.1227 16.7682L18.3004 16.2012Z" fill="white"/>
  <path d="M15.2785 10.7891L15.4585 11.3583L16.0008 11.1468L15.679 11.6441L16.1785 11.9479L15.6002 11.9996L15.679 12.5892L15.2785 12.1594L14.8779 12.5892L14.959 11.9996L14.3784 11.9479L14.8802 11.6441L14.5584 11.1468L15.1007 11.3583L15.2785 10.7891Z" fill="white"/>
  <path d="M18.3004 7.20117L18.4782 7.76821L19.0227 7.55669L18.701 8.05398L19.2005 8.35774L18.6222 8.4095L18.701 9.00128L18.3004 8.56926L17.8999 9.00128L17.9787 8.4095L17.4004 8.35774L17.8999 8.05398L17.5782 7.55669L18.1227 7.76821L18.3004 7.20117Z" fill="white"/>
  <path d="M21.9005 10.1992L22.0783 10.7663L22.6228 10.5547L22.3011 11.052L22.8006 11.358L22.2223 11.4098L22.3011 11.9993L21.9005 11.5673L21.5 11.9993L21.5788 11.4098L21.0005 11.358L21.5 11.052L21.1782 10.5547L21.7228 10.7663L21.9005 10.1992Z" fill="white"/>
  <path d="M19.8015 12.6016L19.9635 13.0246L20.4 13.0606L20.067 13.3554L20.1705 13.8009L19.8015 13.5601L19.4302 13.8009L19.5337 13.3554L19.2007 13.0606L19.6372 13.0246L19.8015 12.6016Z" fill="white"/>
  <path d="M7.20021 2.75642V1.00356C6.34065 1.37934 5.5396 1.85862 4.79931 2.41665V2.58541L4.67555 2.50891C2.81243 3.949 1.38584 5.91787 0.623047 8.19951L4.79931 5.5916V8.39977H7.20021V5.42059L11.9683 8.39977H12.6005V6.83368L10.3032 5.40034H12.6005V2.99944H9.94763L12.6005 1.34108V0.0292516C12.4003 0.020251 12.2023 0 11.9998 0C11.858 0 11.7207 0.0157504 11.5812 0.020251L7.20021 2.75642Z" fill="white"/>
  <path d="M5.40019 4.79869V8.39891H6.59951V4.79869H12.6006V3.59936H6.59951V1.29297C6.18549 1.50223 5.78271 1.72725 5.40019 1.98151V3.59936H3.43582C3.06904 3.97289 2.73152 4.37791 2.4165 4.79869H5.40019Z" fill="#E53935"/>
  <path d="M4.58331 5.40039H3.53699L1.15409 6.88773C1.01684 7.178 0.893078 7.47277 0.77832 7.77654L4.58331 5.40039Z" fill="#E53935"/>
  <path d="M12.1281 0.00585938L7.33301 2.99855H8.38157L12.6006 0.363631V0.0283605C12.4431 0.0216099 12.2856 0.00585938 12.1281 0.00585938Z" fill="#E53935"/>
  <path d="M12.6006 7.16L9.78118 5.40039H8.73486L12.6006 7.81254V7.16Z" fill="#E53935"/>
</svg>
