<svg viewBox="0 0 24 24" fill="none" xmlns="http://www.w3.org/2000/svg">
  <path d="M0 12C0 5.37258 5.37258 0 12 0C18.6274 0 24 5.37258 24 12C24 18.6274 18.6274 24 12 24C5.37258 24 0 18.6274 0 12Z" fill="#ECEFF1"/>
  <path d="M19.2002 2.41665C17.1931 0.904556 14.7044 0 11.9998 0C9.2951 0 6.80644 0.904556 4.79932 2.41665V21.5833C6.80644 23.0954 9.2951 24 11.9998 24C14.7044 24 17.1931 23.0954 19.2002 21.5833V2.41665Z" fill="#ECEFF1"/>
  <path d="M24.0002 11.9994C24.0002 8.07737 22.1101 4.6054 19.2007 2.41602V21.5827C22.1101 19.3933 24.0002 15.9214 24.0002 11.9994Z" fill="#FF3D00"/>
  <path d="M0 11.9994C0 15.9214 1.89012 19.3933 4.79955 21.5827V2.41602C1.89012 4.6054 0 8.07737 0 11.9994Z" fill="#FF3D00"/>
  <path d="M17.4003 11.3992H15.6002L15.5777 10.2088L14.1893 10.9041L14.4008 7.79893L13.1993 8.39972L12.0044 6.59961L10.8006 8.39972L9.59905 7.79893L9.81056 10.8861L8.42222 10.2088C8.42222 10.2088 8.39747 11.3924 8.39972 11.3992H6.59961L7.79893 13.1993L6.59961 13.8001L9.00051 14.9994V16.201C9.00051 16.201 10.5216 16.1177 11.3992 16.0727V17.4003H12.6007V16.0727C13.4783 16.1177 14.9994 16.201 14.9994 16.201V14.9994L17.4003 13.8001L16.201 13.1993L17.4003 11.3992Z" fill="#FF3D00"/>
</svg>
