<svg viewBox="0 0 24 24" fill="none" xmlns="http://www.w3.org/2000/svg">
  <path d="M0 12C0 5.37258 5.37258 0 12 0C18.6274 0 24 5.37258 24 12C24 18.6274 18.6274 24 12 24C5.37258 24 0 18.6274 0 12Z" fill="#ECEFF1"/>
  <path d="M24 12C24 18.6289 18.6289 24 12 24C5.37109 24 0 18.6289 0 12C0 5.37109 5.37109 0 12 0C18.6289 0 24 5.37109 24 12Z" fill="#FF3D00"/>
  <path d="M4.79973 8.74414L5.50852 10.9943H7.79917L5.94505 12.2724L6.65385 14.4527L4.79973 13.1049L2.94561 14.4527L3.65441 12.2724L1.80029 10.9943H4.09094L4.79973 8.74414Z" fill="#FFEB3B"/>
  <path d="M9.28414 7.23633L9.49566 7.91137H10.1842L9.62841 8.29389L9.84218 8.94869L9.28414 8.54366L8.72836 8.94869L8.93987 8.29389L8.38184 7.91137H9.07038L9.28414 7.23633Z" fill="#FFEB3B"/>
  <path d="M9.29996 15.0508L9.51372 15.7258H10.2L9.64423 16.1083L9.85574 16.7631L9.29996 16.3604L8.74417 16.7631L8.95569 16.1083L8.3999 15.7258H9.0862L9.29996 15.0508Z" fill="#FFEB3B"/>
  <path d="M11.7008 9.65039L11.9124 10.3254H12.6009L12.0451 10.708L12.2566 11.3627L11.7008 10.96L11.1451 11.3627L11.3566 10.708L10.8008 10.3254H11.4871L11.7008 9.65039Z" fill="#FFEB3B"/>
  <path d="M11.7008 12.6523L11.9124 13.3274H12.6009L12.0451 13.7077L12.2566 14.3625L11.7008 13.9597L11.1451 14.3625L11.3566 13.7077L10.8008 13.3274H11.4871L11.7008 12.6523Z" fill="#FFEB3B"/>
</svg>
