<svg viewBox="0 0 24 24" fill="none" xmlns="http://www.w3.org/2000/svg">
  <path d="M0 12C0 5.37258 5.37258 0 12 0C18.6274 0 24 5.37258 24 12C24 18.6274 18.6274 24 12 24C5.37258 24 0 18.6274 0 12Z" fill="#ECEFF1"/>
  <path d="M14.4413 12.0023L2.73828 19.6325C4.93892 22.3011 8.27138 24 11.9999 24C18.6288 24 23.9999 18.6289 23.9999 12H14.4368L14.4413 12.0023Z" fill="#FF3D00"/>
  <path d="M11.9999 0C8.27138 0 4.93892 1.70111 2.73828 4.36977L14.4368 12H23.9999C23.9999 5.37109 18.6288 0 11.9999 0Z" fill="#ECEFF1"/>
  <path d="M14.4369 11.9994L2.73842 4.36914C1.02606 6.44152 0 9.10119 0 11.9994C0 14.8975 1.02606 17.5572 2.73842 19.6318L14.4414 12.0016L14.4369 11.9994Z" fill="#3F51B5"/>
</svg>
