<svg viewBox="0 0 24 24" fill="none" xmlns="http://www.w3.org/2000/svg">
  <path d="M0 12C0 5.37258 5.37258 0 12 0C18.6274 0 24 5.37258 24 12C24 18.6274 18.6274 24 12 24C5.37258 24 0 18.6274 0 12Z" fill="#0B3394"/>
  <path d="M12 4L12.365 4.745L13.18 4.8625L12.59 5.4425L12.73 6.26L12 5.8725L11.2725 6.26L11.41 5.4425L10.8225 4.8625L11.635 4.745L12 4ZM8.4975 5.055L8.8625 5.7975L9.6775 5.9175L9.0875 6.4975L9.2275 7.315L8.4975 6.9275L7.77 7.315L7.9075 6.4975L7.3175 5.9175L8.135 5.7975L8.4975 5.055ZM6.0075 7.365L6.3725 8.11L7.1875 8.2275L6.6 8.8075L6.7375 9.625L6.01 9.24L5.28 9.625L5.42 8.8075L4.83 8.2275L5.645 8.11L6.0075 7.365ZM15.5025 5.055L15.1375 5.7975L14.3225 5.9175L14.9125 6.4975L14.7725 7.315L15.5025 6.9275L16.23 7.315L16.0925 6.4975L16.6825 5.9175L15.865 5.7975L15.5025 5.055ZM8.4975 16.2975L8.8625 17.04L9.6775 17.16L9.0875 17.7375L9.2275 18.5575L8.4975 18.17L7.77 18.5575L7.9075 17.7375L7.3175 17.16L8.135 17.04L8.4975 16.2975ZM15.5025 16.2975L15.1375 17.04L14.3225 17.16L14.9125 17.7375L14.7725 18.5575L15.5025 18.17L16.23 18.5575L16.0925 17.7375L16.6825 17.16L15.865 17.04L15.5025 16.2975ZM17.9925 7.365L17.6275 8.11L16.8125 8.2275L17.4 8.8075L17.2625 9.625L17.99 9.24L18.72 9.625L18.58 8.8075L19.17 8.2275L18.355 8.11L17.9925 7.365ZM6.0075 13.9525L6.3725 14.695L7.1875 14.815L6.6 15.395L6.7375 16.2125L6.01 15.825L5.28 16.2125L5.42 15.395L4.83 14.815L5.645 14.695L6.0075 13.9525ZM17.9925 13.9525L17.6275 14.695L16.8125 14.815L17.4 15.395L17.2625 16.2125L17.99 15.825L18.72 16.2125L18.58 15.395L19.17 14.815L18.355 14.695L17.9925 13.9525ZM18.82 10.87L19.185 11.615L20 11.7325L19.41 12.3125L19.55 13.13L18.8225 12.745L18.0925 13.13L18.2325 12.3125L17.64 11.7325L18.455 11.615L18.82 10.87ZM5.18 10.87L5.545 11.615L6.36 11.7325L5.77 12.3125L5.9075 13.13L5.18 12.745L4.4525 13.13L4.59 12.3125L4 11.7325L4.815 11.615L5.18 10.87ZM12 17.74L12.365 18.485L13.18 18.6025L12.59 19.1825L12.7275 20L12 19.615L11.2725 20L11.41 19.1825L10.8225 18.6025L11.635 18.485L12 17.74Z" fill="#F8CD46"/>
</svg>
