<svg viewBox="0 0 24 24" fill="none" xmlns="http://www.w3.org/2000/svg">
  <path d="M0 12C0 5.37258 5.37258 0 12 0C18.6274 0 24 5.37258 24 12C24 18.6274 18.6274 24 12 24C5.37258 24 0 18.6274 0 12Z" fill="#ECEFF1"/>
  <path d="M9.00041 0.394531C6.56576 1.02232 4.43263 2.38366 2.85303 4.24227L9.00041 8.00001V0.394531Z" fill="#3F51B5"/>
  <path d="M2.76318 19.6597C4.34953 21.5701 6.52092 22.9674 9.00057 23.6087V15.8457L2.76318 19.6597Z" fill="#3F51B5"/>
  <path d="M0.393555 15C0.400305 15.0315 0.409306 15.063 0.416056 15.0945L0.566816 15H0.393555Z" fill="white"/>
  <path d="M21.3472 4.48079C19.7496 2.50066 17.5377 1.04707 14.9995 0.394531V8.36003L21.3472 4.48079Z" fill="#3F51B5"/>
  <path d="M14.9995 23.6054C17.5827 22.9394 19.8261 21.4453 21.4282 19.4089L14.9995 15.4824V23.6054Z" fill="#3F51B5"/>
  <path d="M0.449809 8.77344C0.429557 8.84769 0.411556 8.9242 0.393555 9.0007H0.823332L0.449809 8.77344Z" fill="white"/>
  <path d="M23.8515 10.1998C23.7953 9.82173 23.721 9.45046 23.6288 9.08594L21.8062 10.1998H23.8515Z" fill="white"/>
  <path d="M0.82348 9H0.393703C0.292447 9.39152 0.211441 9.79205 0.148438 10.1993H2.7856L0.82348 9Z" fill="white"/>
  <path d="M23.6648 14.7773C23.7413 14.4578 23.802 14.1316 23.8516 13.8008H22.0649L23.6648 14.7773Z" fill="white"/>
  <path d="M2.53134 13.8008H0.148438C0.209191 14.2081 0.292447 14.6086 0.393703 15.0001H0.569214L2.53134 13.8008Z" fill="white"/>
  <path d="M10.1998 8.73047V0.148438C9.79254 0.209191 9.39201 0.292447 9.00049 0.393703V7.99918L10.1998 8.73047Z" fill="white"/>
  <path d="M13.8003 14.75V23.8518C14.2076 23.7911 14.6081 23.7078 14.9996 23.6066V15.4835L13.8003 14.75Z" fill="white"/>
  <path d="M9.00049 15.8449V23.6056C9.39201 23.7069 9.79254 23.7879 10.1998 23.8509V15.1113L9.00049 15.8449Z" fill="white"/>
  <path d="M13.9105 8.81598L14.0816 8.91949L14.9996 8.3592V0.393703C14.6081 0.292447 14.2076 0.211441 13.8003 0.148438V8.99824L13.9105 8.81598Z" fill="white"/>
  <path d="M2.78584 10.2006H8.42019L10.2001 9.11374V8.73347L9.00073 7.99992L2.85335 4.24219C2.34031 4.84523 1.88578 5.49777 1.49876 6.19531L6.03054 9.00124H2.75659L0.780966 7.77266C0.657208 8.09893 0.546952 8.43195 0.450195 8.77397L0.823718 9.00124L2.78584 10.2006Z" fill="white"/>
  <path d="M14.0815 8.92L16.1742 10.2003H21.8063L23.6289 9.08651C23.4354 8.30571 23.1654 7.55641 22.8256 6.84537L19.3671 9.001H16.0932L21.9818 5.34002C21.7815 5.043 21.57 4.75949 21.345 4.48047L14.9996 8.35971L14.0815 8.92Z" fill="white"/>
  <path d="M6.03034 9.00124L1.49856 6.19531C1.21954 6.69934 0.985524 7.22813 0.780762 7.77266L2.75638 9.00124H6.03034Z" fill="#E53935"/>
  <path d="M19.3667 9.00082L22.8252 6.84519C22.5754 6.32316 22.3009 5.81687 21.9814 5.33984L16.0928 9.00082H19.3667Z" fill="#E53935"/>
  <path d="M13.8003 13.8008V14.7503L14.9996 15.4839L21.4283 19.4126C21.8895 18.8231 22.3013 18.1908 22.6501 17.5225L18.5841 15.0001H21.858L23.3319 15.9204C23.4624 15.5491 23.5727 15.1666 23.6649 14.7796L22.0651 13.8008H13.8003Z" fill="white"/>
  <path d="M16.1742 10.2002L14.0816 8.91991L13.9105 8.81641L13.8003 8.99867V10.2002H16.1742Z" fill="white"/>
  <path d="M10.2001 15.1126V13.8008H2.53164L0.567264 15.0001L0.416504 15.0946C0.628017 15.8867 0.916035 16.6472 1.27606 17.365L4.99779 15.0001H8.27174L2.16036 18.8613C2.35162 19.1336 2.54964 19.4036 2.7634 19.6601L9.00079 15.8462L10.2001 15.1126Z" fill="white"/>
  <path d="M8.41992 10.2001H10.1998V9.11328L8.41992 10.2001Z" fill="white"/>
  <path d="M18.584 15L22.6477 17.5202C22.9155 17.0094 23.1405 16.4738 23.3318 15.9203L21.8579 15H18.584Z" fill="#E53935"/>
  <path d="M4.99761 15L1.27588 17.3649C1.5369 17.8869 1.82941 18.3865 2.16018 18.8612L8.27157 15H4.99761Z" fill="#E53935"/>
  <path d="M16.1742 10.1992H13.8003V13.7994H23.8517C23.9394 13.2099 24.0002 12.6136 24.0002 11.9993C24.0002 11.385 23.9394 10.7888 23.8517 10.1992H16.1742Z" fill="#E53935"/>
  <path d="M10.1999 13.7994V10.1992H0.148509C0.0607537 10.7888 0 11.385 0 11.9993C0 12.6136 0.0607537 13.2099 0.148509 13.7994H10.1999Z" fill="#E53935"/>
  <path d="M13.7999 23.8515V0.148509C13.2104 0.0607537 12.6141 0 11.9998 0C11.3855 0 10.7892 0.0607537 10.1997 0.148509V23.8515C10.7892 23.9392 11.3855 24 11.9998 24C12.6141 24 13.2104 23.9392 13.7999 23.8515Z" fill="#E53935"/>
</svg>
