<svg viewBox="0 0 24 24" fill="none" xmlns="http://www.w3.org/2000/svg">
  <path d="M0 12C0 5.37258 5.37258 0 12 0C18.6274 0 24 5.37258 24 12C24 18.6274 18.6274 24 12 24C5.37258 24 0 18.6274 0 12Z" fill="#ECEFF1"/>
  <path d="M15.6002 0.598537V0.549034C14.4639 0.193512 13.2556 0 12 0C5.37109 0 0 5.37109 0 12C0 12.405 0.020251 12.8056 0.0607538 13.1993H15.6002V0.598537Z" fill="#3F51B5"/>
  <path d="M15.6001 4.19855H21.1084C20.5347 3.53026 19.8866 2.92947 19.1778 2.39844H15.6001V4.19855Z" fill="#ECEFF1"/>
  <path d="M23.939 13.1992H0.0605469C0.1213 13.8158 0.240558 14.4143 0.393567 14.9993H23.6083C23.759 14.4143 23.8783 13.8158 23.939 13.1992Z" fill="#ECEFF1"/>
  <path d="M20.5641 20.4004H3.43604C4.11333 21.0912 4.87613 21.6897 5.70193 22.2005H18.2982C19.124 21.6897 19.8868 21.0912 20.5641 20.4004Z" fill="#ECEFF1"/>
  <path d="M22.9963 16.7988H1.00342C1.28019 17.4289 1.60646 18.0319 1.98223 18.5989H22.0175C22.3933 18.0319 22.7195 17.4289 22.9963 16.7988Z" fill="#ECEFF1"/>
  <path d="M15.6001 7.79816H23.2303C22.9963 7.17262 22.7128 6.56958 22.382 5.99805H15.6001V7.79816Z" fill="#ECEFF1"/>
  <path d="M15.6001 11.3997H23.9706C23.9391 10.7877 23.8784 10.1846 23.7591 9.59961H15.6001V11.3997Z" fill="#ECEFF1"/>
  <path d="M15.6001 2.39777H19.1778C18.145 1.62372 16.9884 1.00943 15.7329 0.597656H15.6001V2.39777Z" fill="#F44336"/>
  <path d="M15.6001 5.99933H22.382C22.013 5.36029 21.5877 4.75725 21.1084 4.19922H15.6001V5.99933Z" fill="#F44336"/>
  <path d="M15.6001 9.59894H23.7591C23.6331 8.98015 23.4463 8.38161 23.2303 7.79883H15.6001V9.59894Z" fill="#F44336"/>
  <path d="M15.6001 13.1985H23.9391C23.9796 12.8048 23.9999 12.4043 23.9999 11.9992C23.9999 11.7967 23.9796 11.5987 23.9706 11.3984H15.6001V13.1985Z" fill="#F44336"/>
  <path d="M23.606 15H0.393555C0.553315 15.621 0.751327 16.2241 1.00559 16.8001H22.9962C23.2482 16.2241 23.4462 15.621 23.606 15Z" fill="#F44336"/>
  <path d="M22.0177 18.5996H1.98242C2.40995 19.2476 2.89598 19.8507 3.43601 20.3997H20.5641C21.1041 19.8507 21.5901 19.2476 22.0177 18.5996Z" fill="#F44336"/>
  <path d="M5.70166 22.1992C7.53328 23.3333 9.68666 23.9993 11.9998 23.9993C14.3129 23.9993 16.4663 23.3333 18.2979 22.1992H5.70166Z" fill="#F44336"/>
  <path d="M3.74869 5.40039L4.02771 5.99218L4.64875 6.08668L4.19872 6.54796L4.30672 7.2005L3.74869 6.89223L3.19065 7.2005L3.29866 6.54796L2.84863 6.08668L3.46967 5.99218L3.74869 5.40039Z" fill="white"/>
  <path d="M6.14957 5.40039L6.42859 5.99218L7.04962 6.08668L6.5996 6.54796L6.7076 7.2005L6.14957 6.89223L5.59153 7.2005L5.69954 6.54796L5.24951 6.08668L5.87055 5.99218L6.14957 5.40039Z" fill="white"/>
  <path d="M1.35029 6.89313L1.90832 7.2014L1.80031 6.54886L2.25034 6.08758L1.6293 5.99308L1.62705 5.98633C1.42904 6.32835 1.24678 6.67937 1.08252 7.03939L1.35029 6.89313Z" fill="white"/>
  <path d="M8.55045 5.40039L8.82946 5.99218L9.4505 6.08668L9.00047 6.54796L9.10848 7.2005L8.55045 6.89223L7.99241 7.2005L8.10042 6.54796L7.65039 6.08668L8.27143 5.99218L8.55045 5.40039Z" fill="white"/>
  <path d="M10.9494 5.40039L11.2284 5.99218L11.8494 6.08668L11.3994 6.54796L11.5074 7.2005L10.9494 6.89223L10.3913 7.2005L10.4993 6.54796L10.0493 6.08668L10.6704 5.99218L10.9494 5.40039Z" fill="white"/>
  <path d="M13.1994 5.40039L13.4784 5.99218L14.0994 6.08668L13.6494 6.54796L13.7574 7.2005L13.1994 6.89223L12.6413 7.2005L12.7493 6.54796L12.2993 6.08668L12.9204 5.99218L13.1994 5.40039Z" fill="white"/>
  <path d="M3.74869 10.1992L4.02771 10.791L4.64875 10.8855L4.19872 11.3468L4.30672 11.9993L3.74869 11.6911L3.19065 11.9993L3.29866 11.3468L2.84863 10.8855L3.46967 10.791L3.74869 10.1992Z" fill="white"/>
  <path d="M6.14957 10.1992L6.42859 10.791L7.04962 10.8855L6.5996 11.3468L6.7076 11.9993L6.14957 11.6911L5.59153 11.9993L5.69954 11.3468L5.24951 10.8855L5.87055 10.791L6.14957 10.1992Z" fill="white"/>
  <path d="M8.55045 10.1992L8.82946 10.791L9.4505 10.8855L9.00047 11.3468L9.10848 11.9993L8.55045 11.6911L7.99241 11.9993L8.10042 11.3468L7.65039 10.8855L8.27143 10.791L8.55045 10.1992Z" fill="white"/>
  <path d="M1.35025 10.1992L1.62927 10.791L2.25031 10.8855L1.80028 11.3468L1.90829 11.9993L1.35025 11.6911L0.792217 11.9993L0.900223 11.3468L0.450195 10.8855L1.07123 10.791L1.35025 10.1992Z" fill="white"/>
  <path d="M10.9494 10.1992L11.2284 10.791L11.8494 10.8855L11.3994 11.3468L11.5074 11.9993L10.9494 11.6911L10.3913 11.9993L10.4993 11.3468L10.0493 10.8855L10.6704 10.791L10.9494 10.1992Z" fill="white"/>
  <path d="M13.1994 10.1992L13.4784 10.791L14.0994 10.8855L13.6494 11.3468L13.7574 11.9993L13.1994 11.6911L12.6413 11.9993L12.7493 11.3468L12.2993 10.8855L12.9204 10.791L13.1994 10.1992Z" fill="white"/>
  <path d="M4.34976 7.79883L4.62878 8.39287L5.24982 8.48512L4.79979 8.94865L4.9078 9.59894L4.34976 9.29292L3.79173 9.59894L3.89974 8.94865L3.44971 8.48512L4.07075 8.39287L4.34976 7.79883Z" fill="white"/>
  <path d="M6.75064 7.79883L7.02966 8.39287L7.6507 8.48512L7.20067 8.94865L7.30868 9.59894L6.75064 9.29292L6.19261 9.59894L6.30061 8.94865L5.85059 8.48512L6.47162 8.39287L6.75064 7.79883Z" fill="white"/>
  <path d="M1.9484 7.79883L2.22741 8.39287L2.84845 8.48512L2.39842 8.94865L2.50643 9.59894L1.9484 9.29292L1.39036 9.59894L1.49837 8.94865L1.04834 8.48512L1.66938 8.39287L1.9484 7.79883Z" fill="white"/>
  <path d="M9.14908 7.79883L9.4281 8.39287L10.0491 8.48512L9.59911 8.94865L9.70711 9.59894L9.14908 9.29292L8.59104 9.59894L8.69905 8.94865L8.24902 8.48512L8.87006 8.39287L9.14908 7.79883Z" fill="white"/>
  <path d="M11.55 7.79883L11.829 8.39287L12.45 8.48512L12 8.94865L12.108 9.59894L11.55 9.29292L10.9919 9.59894L11.0999 8.94865L10.6499 8.48512L11.2709 8.39287L11.55 7.79883Z" fill="white"/>
  <path d="M13.8 7.79883L14.079 8.39287L14.7 8.48512L14.25 8.94865L14.358 9.59894L13.8 9.29292L13.2419 9.59894L13.3499 8.94865L12.8999 8.48512L13.5209 8.39287L13.8 7.79883Z" fill="white"/>
  <path d="M4.34976 3L4.62878 3.59179L5.24982 3.68629L4.79979 4.14757L4.9078 4.80011L4.34976 4.49184L3.79173 4.80011L3.89974 4.14757L3.44971 3.68629L4.07075 3.59179L4.34976 3Z" fill="white"/>
  <path d="M6.75064 3L7.02966 3.59179L7.6507 3.68629L7.20067 4.14757L7.30868 4.80011L6.75064 4.49184L6.19261 4.80011L6.30061 4.14757L5.85059 3.68629L6.47162 3.59179L6.75064 3Z" fill="white"/>
  <path d="M9.14908 3L9.4281 3.59179L10.0491 3.68629L9.59911 4.14757L9.70711 4.80011L9.14908 4.49184L8.59104 4.80011L8.69905 4.14757L8.24902 3.68629L8.87006 3.59179L9.14908 3Z" fill="white"/>
  <path d="M11.55 3L11.829 3.59179L12.45 3.68629L12 4.14757L12.108 4.80011L11.55 4.49184L10.9919 4.80011L11.0999 4.14757L10.6499 3.68629L11.2709 3.59179L11.55 3Z" fill="white"/>
  <path d="M13.8 3L14.079 3.59179L14.7 3.68629L14.25 4.14757L14.358 4.80011L13.8 4.49184L13.2419 4.80011L13.3499 4.14757L12.8999 3.68629L13.5209 3.59179L13.8 3Z" fill="white"/>
  <path d="M6.70787 2.3977L6.59986 1.74741L7.04989 1.28388L6.71912 1.23438C6.36585 1.40764 6.02382 1.5989 5.6908 1.80591L5.5918 2.3977L6.14983 2.09168L6.70787 2.3977Z" fill="white"/>
  <path d="M8.55045 0.597656L8.82946 1.19169L9.4505 1.28395L9.00047 1.74748L9.10848 2.39777L8.55045 2.09175L7.99241 2.39777L8.10042 1.74748L7.65039 1.28395L8.27143 1.19169L8.55045 0.597656Z" fill="white"/>
  <path d="M10.9494 0.597656L11.2284 1.19169L11.8494 1.28395L11.3994 1.74748L11.5074 2.39777L10.9494 2.09175L10.3913 2.39777L10.4993 1.74748L10.0493 1.28395L10.6704 1.19169L10.9494 0.597656Z" fill="white"/>
  <path d="M13.1994 0.597656L13.4784 1.19169L14.0994 1.2862L13.6494 1.74748L13.7574 2.39777L13.1994 2.09175L12.6413 2.39777L12.7493 1.74748L12.2993 1.28395L12.9204 1.19169L13.1994 0.597656Z" fill="white"/>
</svg>
