<svg width="80" height="32" viewBox="0 0 80 32" fill="none" xmlns="http://www.w3.org/2000/svg">
<rect x="73.7676" y="23.156" width="5.56348" height="5.61039" fill="#01C4FA"/>
<path fill-rule="evenodd" clip-rule="evenodd" d="M46.4834 19.8314C46.1375 18.6166 45.9512 17.3255 45.9512 15.9873C45.9512 8.81477 51.3019 3.00024 57.9023 3.00024C65.5331 3.00024 69.8535 8.81477 69.8535 15.9873C69.8535 16.5147 69.8246 17.0347 69.7683 17.5457H52.6479C52.7523 18.3804 52.9391 19.1502 53.2232 19.8314C54.0177 21.7365 55.5729 22.9483 58.2114 22.9483C60.8499 22.9483 62.4051 21.7365 63.1996 19.8314H63.2598L69.441 21.6558C67.4371 25.988 63.2077 28.9743 58.3145 28.9743C52.7605 28.9743 48.0618 25.1272 46.5017 19.8314H46.4834ZM52.7788 13.1821H63.6441C63.088 10.3897 61.4819 8.40284 58.2114 8.40284C54.9409 8.40284 53.3349 10.3897 52.7788 13.1821Z" fill="#DB0C8E"/>
<path fill-rule="evenodd" clip-rule="evenodd" d="M21.3428 19.8314C20.9969 18.6166 20.8105 17.3255 20.8105 15.9873C20.8105 8.81477 26.1613 3.00024 32.7617 3.00024C40.3924 3.00024 44.7129 8.81477 44.7129 15.9873C44.7129 16.5147 44.684 17.0347 44.6277 17.5457H27.5073C27.6117 18.3804 27.7985 19.1502 28.0826 19.8314C28.8771 21.7365 30.4323 22.9483 33.0708 22.9483C35.7093 22.9483 37.2645 21.7365 38.059 19.8314H38.1191L44.3004 21.6558C42.2965 25.988 38.0671 28.9743 33.1738 28.9743C27.6198 28.9743 22.9212 25.1272 21.3611 19.8314H21.3428ZM27.6382 13.1821H38.5034C37.9473 10.3897 36.3413 8.40284 33.0708 8.40284C29.8003 8.40284 28.1943 10.3897 27.6382 13.1821Z" fill="#0C4070"/>
<path d="M1.23633 3.72754V9.13014H11.7451L9.16943 13.0782H4.32715V17.4418H6.38769L0 27.1042V28.0392H20.6055V22.7405H9.37549L12.7754 17.4418H17.5146V13.0782H15.5571L21.1206 4.6626V3.72754H1.23633Z" fill="#01C4FA"/>
</svg>
