<svg viewBox="0 0 16 16" fill="none" xmlns="http://www.w3.org/2000/svg">
<path d="M8 10L12 6L4 6L8 10Z" fill="currentColor"/>
<path d="M12 6L12.5303 6.53033C12.7448 6.31583 12.809 5.99324 12.6929 5.71299C12.5768 5.43273 12.3033 5.25 12 5.25L12 6ZM8 10L7.46967 10.5303C7.76256 10.8232 8.23744 10.8232 8.53033 10.5303L8 10ZM4 6L4 5.25C3.69665 5.25 3.42318 5.43273 3.30709 5.71299C3.191 5.99325 3.25517 6.31583 3.46967 6.53033L4 6ZM11.4697 5.46967L7.46967 9.46967L8.53033 10.5303L12.5303 6.53033L11.4697 5.46967ZM8.53033 9.46967L4.53033 5.46967L3.46967 6.53033L7.46967 10.5303L8.53033 9.46967ZM12 5.25L4 5.25L4 6.75L12 6.75L12 5.25Z" fill="currentColor"/>
</svg>
