<svg viewBox="0 0 24 24" fill="none" xmlns="http://www.w3.org/2000/svg">
<path fill-rule="evenodd" clip-rule="evenodd" d="M9.75 5.75C9.75 6.99264 10.7574 8 12 8C13.2426 8 14.25 6.99264 14.25 5.75C14.25 4.50736 13.2426 3.5 12 3.5C10.7574 3.5 9.75 4.50736 9.75 5.75ZM15.75 5.75C15.75 7.82107 14.0711 9.5 12 9.5C9.92893 9.5 8.25 7.82107 8.25 5.75C8.25 3.67893 9.92893 2 12 2C14.0711 2 15.75 3.67893 15.75 5.75Z" fill="currentColor"/>
<path d="M5 21.75L5 17.75C5 13.884 8.13401 10.75 12 10.75C14.5463 10.75 16.7751 12.1096 18 14.1424" stroke="currentColor" stroke-width="1.5" stroke-linecap="round" stroke-linejoin="round"/>
<path d="M20.5 19.4999L13 19.4999M13 19.4999L16.5 23M13 19.4999L16.5 15.9999" stroke="currentColor" stroke-width="1.5" stroke-linecap="round" stroke-linejoin="round"/>
</svg>
