<svg viewBox="0 0 796 245" fill="none" xmlns="http://www.w3.org/2000/svg">
  <g opacity="0.12" clip-path="url(#clip0)">
    <path
      fill-rule="evenodd"
      clip-rule="evenodd"
      d="M350.093 8.95298C213.977 8.95298 103.634 119.183 103.634 255.159C103.634 391.135 213.977 501.365 350.093 501.365C486.208 501.365 596.552 391.135 596.552 255.159C596.552 119.183 486.208 8.95298 350.093 8.95298Z"
      stroke="currentColor"
      stroke-width="1.28"
    />
    <path
      fill-rule="evenodd"
      clip-rule="evenodd"
      d="M524.214 156.037C513.962 156.037 505.65 164.34 505.65 174.582C505.65 184.825 513.962 193.128 524.214 193.128C534.467 193.128 542.779 184.825 542.779 174.582C542.779 164.34 534.467 156.037 524.214 156.037Z"
      stroke="currentColor"
      stroke-width="1.28"
    />
    <path
      fill-rule="evenodd"
      clip-rule="evenodd"
      d="M549.181 144.526C484.128 144.526 431.392 197.207 431.392 262.193C431.392 327.179 484.128 379.86 549.181 379.86C614.233 379.86 666.969 327.179 666.969 262.193C666.969 197.207 614.233 144.526 549.181 144.526Z"
      stroke="currentColor"
      stroke-width="1.28"
    />
    <path
      fill-rule="evenodd"
      clip-rule="evenodd"
      d="M548.54 153.479C488.791 153.479 440.354 201.866 440.354 261.554C440.354 321.242 488.791 369.629 548.54 369.629C608.29 369.629 656.726 321.242 656.726 261.554C656.726 201.866 608.29 153.479 548.54 153.479Z"
      stroke="currentColor"
      stroke-width="1.28"
    />
    <path
      fill-rule="evenodd"
      clip-rule="evenodd"
      d="M502.449 51.1596C450.478 51.1596 408.347 93.2475 408.347 145.165C408.347 197.084 450.478 239.171 502.449 239.171C554.421 239.171 596.552 197.084 596.552 145.165C596.552 93.2475 554.421 51.1596 502.449 51.1596Z"
      stroke="currentColor"
      stroke-width="1.28"
    />
    <path
      fill-rule="evenodd"
      clip-rule="evenodd"
      d="M502.449 42.2067C445.175 42.2067 398.744 88.5892 398.744 145.805C398.744 203.021 445.175 249.403 502.449 249.403C559.724 249.403 606.154 203.021 606.154 145.805C606.154 88.5892 559.724 42.2067 502.449 42.2067Z"
      stroke="currentColor"
      stroke-width="1.28"
    />
    <path
      fill-rule="evenodd"
      clip-rule="evenodd"
      d="M396.824 228.939C311.266 228.939 241.907 298.227 241.907 383.697C241.907 469.168 311.266 538.455 396.824 538.455C482.382 538.455 551.741 469.168 551.741 383.697C551.741 298.227 482.382 228.939 396.824 228.939Z"
      stroke="currentColor"
      stroke-width="1.28"
    />
    <path
      fill-rule="evenodd"
      clip-rule="evenodd"
      d="M396.824 239.171C316.922 239.171 252.149 303.878 252.149 383.697C252.149 463.517 316.922 528.224 396.824 528.224C476.726 528.224 541.499 463.517 541.499 383.697C541.499 303.878 476.726 239.171 396.824 239.171Z"
      stroke="currentColor"
      stroke-width="1.28"
    />
    <path
      fill-rule="evenodd"
      clip-rule="evenodd"
      d="M577.347 228.939C491.789 228.939 422.43 298.227 422.43 383.697C422.43 469.168 491.789 538.455 577.347 538.455C662.905 538.455 732.264 469.168 732.264 383.697C732.264 298.227 662.905 228.939 577.347 228.939Z"
      stroke="currentColor"
      stroke-width="1.28"
    />
    <path
      fill-rule="evenodd"
      clip-rule="evenodd"
      d="M577.347 239.171C497.446 239.171 432.673 303.878 432.673 383.697C432.673 463.517 497.446 528.224 577.347 528.224C657.249 528.224 722.022 463.517 722.022 383.697C722.022 303.878 657.249 239.171 577.347 239.171Z"
      stroke="currentColor"
      stroke-width="1.28"
    />
    <path
      fill-rule="evenodd"
      clip-rule="evenodd"
      d="M216.301 228.939C130.742 228.939 61.3837 298.227 61.3837 383.697C61.3837 469.168 130.742 538.455 216.301 538.455C301.859 538.455 371.218 469.168 371.218 383.697C371.218 298.227 301.859 228.939 216.301 228.939Z"
      stroke="currentColor"
      stroke-width="1.28"
    />
    <path
      fill-rule="evenodd"
      clip-rule="evenodd"
      d="M216.301 239.171C136.399 239.171 71.6265 303.878 71.6265 383.697C71.6265 463.517 136.399 528.224 216.301 528.224C296.203 528.224 360.976 463.517 360.976 383.697C360.976 303.878 296.203 239.171 216.301 239.171Z"
      stroke="currentColor"
      stroke-width="1.28"
    />
    <path
      fill-rule="evenodd"
      clip-rule="evenodd"
      d="M397.464 8.75457e-06C187.104 8.75457e-06 16.5732 170.356 16.5732 380.5C16.5732 590.644 187.104 761 397.464 761C607.825 761 778.355 590.644 778.355 380.5C778.355 170.356 607.825 8.75457e-06 397.464 8.75457e-06Z"
      stroke="currentColor"
      stroke-width="1.28"
    />
    <path
      fill-rule="evenodd"
      clip-rule="evenodd"
      d="M396.824 20.4638C198.131 20.4638 37.0579 181.371 37.0579 379.86C37.0579 578.35 198.131 739.257 396.824 739.257C595.517 739.257 756.59 578.35 756.59 379.86C756.59 181.371 595.517 20.4638 396.824 20.4638Z"
      stroke="currentColor"
      stroke-width="1.28"
    />
    <path
      fill-rule="evenodd"
      clip-rule="evenodd"
      d="M397.464 20.4639C345.139 20.4639 302.722 62.838 302.722 115.109C302.722 167.38 345.139 209.755 397.464 209.755C449.789 209.755 492.207 167.38 492.207 115.109C492.207 62.838 449.789 20.4639 397.464 20.4639Z"
      stroke="currentColor"
      stroke-width="1.28"
    />
    <path
      fill-rule="evenodd"
      clip-rule="evenodd"
      d="M291.199 30.6957C278.117 30.6957 267.513 41.2893 267.513 54.3571C267.513 67.4249 278.117 78.0184 291.199 78.0184C304.28 78.0184 314.884 67.4249 314.884 54.3571C314.884 41.2893 304.28 30.6957 291.199 30.6957Z"
      stroke="currentColor"
      stroke-width="1.28"
    />
    <path
      fill-rule="evenodd"
      clip-rule="evenodd"
      d="M659.287 156.037C643.023 156.037 629.84 169.207 629.84 185.454C629.84 201.7 643.023 214.871 659.287 214.871C675.55 214.871 688.734 201.7 688.734 185.454C688.734 169.207 675.55 156.037 659.287 156.037Z"
      stroke="currentColor"
      stroke-width="1.28"
    />
    <path
      fill-rule="evenodd"
      clip-rule="evenodd"
      d="M502.449 115.109C485.833 115.109 472.362 128.566 472.362 145.166C472.362 161.765 485.833 175.222 502.449 175.222C519.066 175.222 532.537 161.765 532.537 145.166C532.537 128.566 519.066 115.109 502.449 115.109Z"
      stroke="currentColor"
      stroke-width="1.28"
    />
    <path d="M353.293 311.889V115.109H259.831" stroke="currentColor" stroke-width="1.28" />
    <path d="M371.218 413.674L371.218 1.02328" stroke="currentColor" stroke-width="1.28" />
  </g>
  <defs>
    <clipPath id="clip0">
      <rect width="796" height="245" fill="white" transform="translate(796 245) rotate(-180)" />
    </clipPath>
  </defs>
</svg>
  