<svg viewBox="0 0 24 24" fill="none" xmlns="http://www.w3.org/2000/svg">
<path d="M9 15.1973L9.65585 14.8335C9.58997 14.7147 9.49309 14.6161 9.37554 14.5481L9 15.1973ZM15 15.1973L14.6245 14.5481C14.5069 14.6161 14.41 14.7147 14.3442 14.8335L15 15.1973ZM10 17L9.34415 17.3638C9.47636 17.6021 9.72745 17.75 10 17.75V17ZM14 17V17.75C14.2725 17.75 14.5236 17.6021 14.6558 17.3638L14 17ZM6.75 10C6.75 7.10051 9.10051 4.75 12 4.75V3.25C8.27208 3.25 5.25 6.27208 5.25 10H6.75ZM12 4.75C14.8995 4.75 17.25 7.10051 17.25 10H18.75C18.75 6.27208 15.7279 3.25 12 3.25V4.75ZM9.37554 14.5481C7.80436 13.6392 6.75 11.9423 6.75 10H5.25C5.25 12.4994 6.60883 14.6805 8.62446 15.8465L9.37554 14.5481ZM17.25 10C17.25 11.9423 16.1956 13.6392 14.6245 14.5481L15.3755 15.8465C17.3912 14.6805 18.75 12.4994 18.75 10H17.25ZM8.34415 15.5611L9.34415 17.3638L10.6558 16.6362L9.65585 14.8335L8.34415 15.5611ZM10 17.75H14V16.25H10V17.75ZM14.6558 17.3638L15.6558 15.5611L14.3442 14.8335L13.3442 16.6362L14.6558 17.3638Z" fill="currentColor"/>
<path d="M10 19H14" stroke="currentColor" stroke-width="1.5" stroke-linecap="round" stroke-linejoin="round"/>
<path d="M11 21H13" stroke="currentColor" stroke-width="1.5" stroke-linecap="round" stroke-linejoin="round"/>
<path d="M13.5 13L14 10L12 11.5L10 10L10.5 13" stroke="currentColor" stroke-width="1.5" stroke-linecap="round" stroke-linejoin="round"/>
</svg>
