<svg viewBox="0 0 88 88" fill="none" xmlns="http://www.w3.org/2000/svg">
<circle cx="44" cy="44" r="32" stroke="currentColor" stroke-width="2" stroke-linecap="round" stroke-linejoin="round"/>
<path d="M57.8356 16.2583L53.0703 20.1746C51.9717 21.0774 51.6795 22.6384 52.3771 23.8775V23.8775C53.0776 25.1217 52.7798 26.6896 51.6719 27.5903L48.415 30.2381C48.2205 30.3962 48.1076 30.6335 48.1076 30.8842V30.8842C48.1076 31.4691 48.695 31.8718 49.2406 31.6607L54.9264 29.4618C55.8998 29.0853 56.9779 29.0819 57.9537 29.4521L59.3721 29.9902C60.1618 30.2899 60.6841 31.0466 60.6841 31.8913V31.8913C60.6841 33.0143 59.7737 33.9246 58.6508 33.9246H54.3867C53.0648 33.9246 51.7765 34.3406 50.7042 35.1136L49.8894 35.7009C48.7356 36.5326 47.8974 37.7305 47.5113 39.0993L47.4734 39.2335C46.8422 41.4715 47.544 43.8734 49.2808 45.4193L51.143 47.0768C51.874 47.7276 52.9277 47.8675 53.8033 47.4301V47.4301C55.1619 46.7514 56.8009 47.4936 57.187 48.9624L57.5843 50.474C57.7489 51.1 57.7446 51.7585 57.5719 52.3824L56.8309 55.0589C56.576 55.9794 56.628 56.9579 56.979 57.8462V57.8462C57.9672 60.3473 60.9677 61.3717 63.2926 60.0203V60.0203C64.2389 59.4702 64.9533 58.585 65.2866 57.5425L66.8303 52.7146C67.1033 51.8609 67.4723 51.0409 67.9304 50.2704L69.8016 47.123C70.8419 45.3731 70.8525 43.1969 69.8293 41.437L67.9238 38.1596C67.5377 37.4955 67.724 36.6463 68.3528 36.2049V36.2049C68.876 35.8375 69.5759 35.8477 70.0882 36.2302L74.1205 39.2406" stroke="currentColor" stroke-width="2" stroke-linecap="round" stroke-linejoin="round"/>
<path d="M22.333 44.3585L22.0535 43.7893C21.041 41.7276 22.6226 39.3386 24.9159 39.4654V39.4654H25.1776C26.3541 39.4654 27.3079 38.5117 27.3079 37.3352V37.3352C27.3079 36.6383 27.6487 35.9855 28.2205 35.5872L30.7865 33.7999C31.3287 33.4221 31.6912 32.8374 31.7882 32.1838L31.832 31.8893C31.9815 30.8826 32.8458 30.1372 33.8636 30.1372V30.1372C35.4113 30.1372 36.4029 28.4902 35.6789 27.1224L35.1223 26.0709C34.8388 25.5354 34.9019 24.8825 35.2827 24.4111V24.4111C36.0827 23.421 35.378 21.9457 34.1051 21.9457H30.6479C30.4723 21.9457 30.2973 21.9258 30.1261 21.8866V21.8866C28.4102 21.493 27.7311 19.4138 28.8839 18.0832L32.0922 14.3804M22.333 44.3585L29.6287 49.2558C30.1299 49.5923 30.6724 49.8627 31.2428 50.0604L34.3925 51.1519C35.3337 51.478 35.9649 52.3647 35.9649 53.3608V53.3608C35.9649 54.3978 36.648 55.3109 37.6428 55.6036L40.0267 56.305C41.5065 56.7404 41.9803 58.6012 40.889 59.6913V59.6913C40.5075 60.0723 40.2931 60.5894 40.2931 61.1286V61.5864C40.2931 62.655 39.7489 63.6501 38.8491 64.2266L38.4136 64.5057C37.6741 64.9796 37.1072 65.6793 36.797 66.5009L36.1047 68.3351C36.0142 68.5749 36.0079 68.8383 36.087 69.0821V69.0821C36.4348 70.1544 35.1691 71.0181 34.2973 70.3034L31.8603 68.3056C31.4602 67.9775 31.1987 67.5106 31.1281 66.9981L30.7697 64.3966C30.5197 62.5821 29.6642 60.9052 28.3419 59.6377L27.6491 58.9738C25.8674 57.266 25.1944 54.703 25.9073 52.3402V52.3402C26.7397 49.581 25.6747 46.6017 23.2819 44.9955L22.333 44.3585ZM22.333 44.3585H20.9245C17.4418 44.3585 14.2266 42.4908 12.5013 39.4654V39.4654" stroke="currentColor" stroke-width="2" stroke-linecap="round" stroke-linejoin="round"/>
<path d="M7.4989 23.2065C3.99887 29.3372 1.9989 36.4349 1.9989 43.9997C1.9989 53.3652 5.06431 62.0148 10.2465 68.9997" stroke="currentColor" stroke-width="1.5" stroke-linecap="round" stroke-linejoin="round" stroke-dasharray="4 4"/>
<path fill-rule="evenodd" clip-rule="evenodd" d="M18.8891 10.2645L15.907 13.2467L10.0714 12.413C9.68073 12.3572 9.28655 12.4886 9.00748 12.7677C8.78759 12.9876 8.87628 13.362 9.17145 13.4599L14.0903 15.0913L10.3871 18.7945L9.45294 18.417C9.08085 18.2666 8.65491 18.3533 8.37113 18.637L7.9169 19.0913L10.2385 20.3293L11.4766 22.651L11.9308 22.1967C12.2146 21.913 12.3012 21.487 12.1509 21.1149L11.7733 20.1808L15.4766 16.4775L17.1079 21.3964C17.2058 21.6916 17.5803 21.7803 17.8002 21.5604C18.0793 21.2813 18.2107 20.8871 18.1548 20.4964L17.3212 14.6609L20.3033 11.6787C20.6939 11.2882 20.6939 10.655 20.3033 10.2645C19.9128 9.874 19.2797 9.874 18.8891 10.2645Z" fill="currentColor"/>
</svg>
