<svg viewBox="0 0 24 24" fill="none" xmlns="http://www.w3.org/2000/svg">
<path d="M1 11C1 10.4477 1.44772 10 2 10H16C16.5523 10 17 10.4477 17 11V19.4C17 19.9523 16.5523 20.4 16 20.4H7.01421C6.749 20.4 6.49464 20.5054 6.30711 20.6929L5.70711 21.2929C5.31658 21.6834 4.68342 21.6834 4.29289 21.2929L3.69289 20.6929C3.50536 20.5054 3.251 20.4 2.98579 20.4H2C1.44771 20.4 1 19.9523 1 19.4V11Z" stroke="currentColor" stroke-width="1.5" stroke-linejoin="round"/>
<path d="M6.25 7.4C6.25 7.81421 6.58579 8.15 7 8.15C7.41421 8.15 7.75 7.81421 7.75 7.4H6.25ZM18.4697 14.4697C18.1768 14.7626 18.1768 15.2374 18.4697 15.5303C18.7626 15.8232 19.2374 15.8232 19.5303 15.5303L18.4697 14.4697ZM8 3.75H22V2.25H8V3.75ZM22.25 4V12.4H23.75V4H22.25ZM7.75 7.4V4H6.25V7.4H7.75ZM22 12.65H21.0142V14.15H22V12.65ZM19.7768 13.1626L18.4697 14.4697L19.5303 15.5303L20.8374 14.2232L19.7768 13.1626ZM22.25 12.4C22.25 12.5381 22.1381 12.65 22 12.65V14.15C22.9665 14.15 23.75 13.3665 23.75 12.4H22.25ZM22 3.75C22.1381 3.75 22.25 3.86193 22.25 4H23.75C23.75 3.0335 22.9665 2.25 22 2.25V3.75ZM21.0142 12.65C20.5501 12.65 20.105 12.8344 19.7768 13.1626L20.8374 14.2232C20.8843 14.1763 20.9479 14.15 21.0142 14.15V12.65ZM8 2.25C7.0335 2.25 6.25 3.0335 6.25 4H7.75C7.75 3.86193 7.86193 3.75 8 3.75V2.25Z" fill="currentColor"/>
</svg>
