<svg viewBox="0 0 24 24" fill="none" xmlns="http://www.w3.org/2000/svg">
<path d="M19.0343 8.52606C19.325 8.23097 19.3214 7.75611 19.0263 7.46543C18.7312 7.17476 18.2564 7.17835 17.9657 7.47345L19.0343 8.52606ZM10 16.6292L9.52918 17.213C9.82922 17.4549 10.2638 17.4301 10.5343 17.1555L10 16.6292ZM5.97083 12.4162C5.6484 12.1562 5.17623 12.2068 4.9162 12.5292C4.65617 12.8516 4.70675 13.3238 5.02918 13.5838L5.97083 12.4162ZM17.9657 7.47345L9.46568 16.1029L10.5343 17.1555L19.0343 8.52606L17.9657 7.47345ZM10.4708 16.0454L5.97083 12.4162L5.02918 13.5838L9.52918 17.213L10.4708 16.0454Z" fill="currentColor"/>
</svg>
