<svg viewBox="0 0 24 24" fill="none" xmlns="http://www.w3.org/2000/svg">
<path fill-rule="evenodd" clip-rule="evenodd" d="M20 6C20 7.1048 19.1048 8 18 8C16.8944 8 16 7.1048 16 6C16 4.8944 16.8944 4 18 4C19.1048 4 20 4.8944 20 6V6Z" stroke="currentColor" stroke-width="1.5" stroke-linecap="round" stroke-linejoin="round"/>
<path fill-rule="evenodd" clip-rule="evenodd" d="M20 18C20 19.1048 19.1048 20 18 20C16.8944 20 16 19.1048 16 18C16 16.8944 16.8944 16 18 16C19.1048 16 20 16.8944 20 18V18Z" stroke="currentColor" stroke-width="1.5" stroke-linecap="round" stroke-linejoin="round"/>
<path fill-rule="evenodd" clip-rule="evenodd" d="M8 6C8 7.1048 7.1048 8 6 8C4.8944 8 4 7.1048 4 6C4 4.8944 4.8944 4 6 4C7.1048 4 8 4.8944 8 6V6Z" stroke="currentColor" stroke-width="1.5" stroke-linecap="round" stroke-linejoin="round"/>
<path fill-rule="evenodd" clip-rule="evenodd" d="M8 18C8 19.1048 7.1048 20 6 20C4.8944 20 4 19.1048 4 18C4 16.8944 4.8944 16 6 16C7.1048 16 8 16.8944 8 18V18Z" stroke="currentColor" stroke-width="1.5" stroke-linecap="round" stroke-linejoin="round"/>
</svg>
