<svg viewBox="0 0 88 88" fill="none" xmlns="http://www.w3.org/2000/svg">
  <path
    d="M12.0013 34L44.0013 58.7274L76.0013 34"
    stroke="currentColor"
    stroke-width="2"
    stroke-linecap="round"
    stroke-linejoin="round"
  />
  <path
    d="M12.0013 33.7283L20.0013 27.5465L22.0013 26.001L23.0013 25.2283L23.5013 24.842M76.0013 33.7284L68.0013 27.5465L66.0013 26.0011L65.0013 25.2283"
    stroke="currentColor"
    stroke-width="2"
    stroke-linecap="round"
    stroke-linejoin="round"
  />
  <path
    d="M65.0013 42.0001V15.2942C65.0013 13.6373 63.6582 12.2942 62.0013 12.2942H26.5013C24.8445 12.2942 23.5013 13.6373 23.5013 15.2942L23.5013 42.5"
    stroke="currentColor"
    stroke-width="2"
    stroke-linecap="round"
    stroke-linejoin="round"
  />
  <path d="M32.0454 27.2795H56.4572" stroke="currentColor" stroke-width="2" stroke-linecap="round" stroke-linejoin="round" />
  <path d="M32.0454 21.2795H39.4572" stroke="currentColor" stroke-width="2" stroke-linecap="round" stroke-linejoin="round" />
  <path d="M32.0454 33.0442H56.4572" stroke="currentColor" stroke-width="2" stroke-linecap="round" stroke-linejoin="round" />
  <path d="M32.0454 38.8088H56.4572" stroke="currentColor" stroke-width="2" stroke-linecap="round" stroke-linejoin="round" />
  <rect
    x="80.0013"
    y="61"
    width="18"
    height="18"
    rx="4"
    transform="rotate(90 80.0013 61)"
    stroke="currentColor"
    stroke-width="2"
    stroke-linecap="round"
    stroke-linejoin="round"
  />
  <path
    d="M66.8014 70.4566L70.014 72.9887L75.3923 67.4207"
    stroke="currentColor"
    stroke-width="2"
    stroke-linecap="round"
    stroke-linejoin="round"
  />
  <path
    d="M14.9105 73.2727L30.9105 60.1818M51.2741 54.3636L56.7287 59.0909L59.4559 61.4545"
    stroke="currentColor"
    stroke-width="2"
    stroke-linecap="round"
    stroke-linejoin="round"
  />
  <path
    d="M12.0013 34.0001L12.0013 74.7274L44.0013 74.7274L56.0013 74.7274L58.0013 74.7274M76.0013 34.0001L76.0013 54.3638L76.0013 57.5456"
    stroke="currentColor"
    stroke-width="2"
    stroke-linecap="round"
    stroke-linejoin="round"
  />
</svg>
  