<svg viewBox="0 0 24 24" fill="none" xmlns="http://www.w3.org/2000/svg">
<path fill-rule="evenodd" clip-rule="evenodd" d="M4 3.25C3.71593 3.25 3.45623 3.4105 3.32918 3.66459C3.20214 3.91868 3.22956 4.22274 3.4 4.45L9.25 12.25V20C9.25 20.2841 9.41051 20.5438 9.66459 20.6708C9.91868 20.7979 10.2227 20.7704 10.45 20.6L14.45 17.6C14.6389 17.4584 14.75 17.2361 14.75 17V12.25L20.6 4.45C20.7705 4.22274 20.7979 3.91868 20.6708 3.66459C20.5438 3.4105 20.2841 3.25 20 3.25H4ZM10.6 11.55L5.5 4.75H18.5L13.625 11.25H12.5C12.0858 11.25 11.75 11.5858 11.75 12C11.75 12.4142 12.0858 12.75 12.5 12.75H13.25V16.625L10.75 18.5V12C10.75 11.8377 10.6974 11.6798 10.6 11.55Z" fill="currentColor"/>
</svg>
