<svg width="24" height="24" viewBox="0 0 24 24" fill="none" xmlns="http://www.w3.org/2000/svg">
<path d="M2 7V16H14.5V12" stroke="currentColor" stroke-width="1.5" stroke-linecap="round" stroke-linejoin="round"/>
<path d="M18.5998 21.6C19.5939 21.6 20.3998 20.7941 20.3998 19.8C20.3998 18.8059 19.5939 18 18.5998 18C17.6057 18 16.7998 18.8059 16.7998 19.8C16.7998 20.7941 17.6057 21.6 18.5998 21.6Z" stroke="currentColor" stroke-width="1.5" stroke-linecap="round" stroke-linejoin="round"/>
<path d="M9.5998 21.6C10.5939 21.6 11.3998 20.7941 11.3998 19.8C11.3998 18.8059 10.5939 18 9.5998 18C8.60569 18 7.7998 18.8059 7.7998 19.8C7.7998 20.7941 8.60569 21.6 9.5998 21.6Z" stroke="currentColor" stroke-width="1.5" stroke-linecap="round" stroke-linejoin="round"/>
<path d="M4.8 21.6C5.79411 21.6 6.6 20.7941 6.6 19.8C6.6 18.8059 5.79411 18 4.8 18C3.80589 18 3 18.8059 3 19.8C3 20.7941 3.80589 21.6 4.8 21.6Z" stroke="currentColor" stroke-width="1.5" stroke-linecap="round" stroke-linejoin="round"/>
<path d="M20.6099 19.7999H21.1319C21.4501 19.7999 21.7554 19.6734 21.9804 19.4484C22.2054 19.2234 22.3319 18.9181 22.3319 18.5999V14.4719L19.5959 9.67188H19.2269M14.8579 12V15.7999H1.29492" stroke="currentColor" stroke-width="1.5" stroke-linecap="round" stroke-linejoin="round"/>
<path d="M15.0303 19.8H16.8003" stroke="currentColor" stroke-width="1.5" stroke-linecap="round" stroke-linejoin="round"/>
<path d="M11.5557 19.8H11.8577" stroke="currentColor" stroke-width="1.5" stroke-linecap="round" stroke-linejoin="round"/>
<path d="M6.37207 19.8H8.10007" stroke="currentColor" stroke-width="1.5" stroke-linejoin="round"/>
<path d="M1.31445 15.5901V18.8101C1.31445 19.0727 1.41876 19.3245 1.60442 19.5101C1.79008 19.6958 2.04189 19.8001 2.30445 19.8001H3.00045" stroke="currentColor" stroke-width="1.5" stroke-linecap="round" stroke-linejoin="round"/>
<path d="M18.5137 11.902V14.4H22.3557" stroke="currentColor" stroke-width="1.5" stroke-linecap="round" stroke-linejoin="round"/>
<path d="M14.8584 15.5901V19.8001" stroke="currentColor" stroke-width="1.5" stroke-linecap="round" stroke-linejoin="round"/>
<path d="M5.52539 1.99996L6.38924 0.666626C7.56998 1.01376 12.8681 2.4444 12.8681 2.4444L9.93102 4.47107C9.93102 4.47107 6.6052 2.51996 5.52539 1.99996Z" stroke="currentColor" stroke-width="1.5" stroke-linecap="round" stroke-linejoin="round"/>
<path d="M12.2201 2.22224C13.2221 1.72002 15.9173 0.506684 18.267 1.33335C18.7939 1.52446 18.9451 1.68891 18.9883 1.85335C19.282 3.07557 13.9477 5.33335 13.9477 5.33335C13.9477 5.33335 8.98062 7.33335 7.25293 7.7778C6.17868 8.037 5.05485 7.97533 4.0135 7.60002C4.0135 7.60002 3.79754 7.33335 5.09331 6.44446L4.0135 4.52002L4.66138 3.7778L7.33931 5.13779L8.98062 4.22224" stroke="currentColor" stroke-width="1.5" stroke-linecap="round" stroke-linejoin="round"/>
<path d="M16.5003 9.28571L15.6758 4.88892" stroke="currentColor" stroke-width="1.5" stroke-linecap="round" stroke-linejoin="round"/>
<path d="M12.2197 6.22217L15.0272 9.99995L16.4871 9.33328" stroke="currentColor" stroke-width="1.5" stroke-linecap="round" stroke-linejoin="round"/>
</svg>
