
  <svg viewBox="0 0 24 24" fill="none" xmlns="http://www.w3.org/2000/svg">
  <path
    d="M13.7193 9.76316L14.5312 8.7193C15.3749 7.6345 16.6722 7 18.0465 7V7C20.5061 7 22.5 8.99388 22.5 11.4535V12.4939C22.5 14.9535 20.5061 16.9474 18.0465 16.9474V16.9474C16.6722 16.9474 15.3749 16.3129 14.5312 15.2281L12 11.9737L9.46881 8.7193C8.62508 7.6345 7.32776 7 5.95346 7V7C3.49388 7 1.5 8.99388 1.5 11.4535V12.4939C1.5 14.9535 3.49388 16.9474 5.95346 16.9474V16.9474C7.32776 16.9474 8.62508 16.3129 9.46881 15.2281L10.2807 14.1842"
    stroke="currentColor" stroke-width="1.5" stroke-linecap="round" stroke-linejoin="round"
    />

</svg>
