 <svg viewBox="0 0 24 24" fill="none" xmlns="http://www.w3.org/2000/svg">
  <path 
    fill-rule="evenodd" 
    clip-rule="evenodd" 
    d="M6.32712 17.8065C6.32712 19.0074 5.35406 19.9804 4.15318 19.9804C2.95143 19.9804 1.97925 19.0074 1.97925 17.8065C1.97925 16.6048 2.95143 15.6326 4.15318 15.6326C5.35406 15.6326 6.32712 16.6048 6.32712 17.8065V17.8065Z" 
    stroke="currentColor" 
    stroke-width="1.5" 
    stroke-linecap="round" 
    stroke-linejoin="round"
  />

  <path 
    fill-rule="evenodd" 
    clip-rule="evenodd" 
    d="M11.9792 7.8065C11.9792 9.00739 11.0062 9.98044 9.80528 9.98044C8.60353 9.98044 7.63135 9.00739 7.63135 7.8065C7.63135 6.60475 8.60353 5.63257 9.80528 5.63257C11.0062 5.63257 11.9792 6.60475 11.9792 7.8065V7.8065Z" 
    stroke="currentColor" 
    stroke-width="1.5" 
    stroke-linecap="round" 
    stroke-linejoin="round"
  />

  <path 
    fill-rule="evenodd" 
    clip-rule="evenodd" 
    d="M18.0664 14.0235C18.0664 15.2244 17.0933 16.1975 15.8924 16.1975C14.6907 16.1975 13.7185 15.2244 13.7185 14.0235C13.7185 12.8218 14.6907 11.8496 15.8924 11.8496C17.0933 11.8496 18.0664 12.8218 18.0664 14.0235V14.0235Z" 
    stroke="currentColor" 
    stroke-width="1.5" 
    stroke-linecap="round" 
    stroke-linejoin="round"
  />

  <path 
    fill-rule="evenodd" 
    clip-rule="evenodd" 
    d="M21.3479 5.17393C21.3479 6.37482 20.3748 7.34787 19.1739 7.34787C17.9722 7.34787 17 6.37482 17 5.17393C17 3.97218 17.9722 3 19.1739 3C20.3748 3 21.3479 3.97218 21.3479 5.17393V5.17393Z" 
    stroke="currentColor" 
    stroke-width="1.5" 
    stroke-linecap="round" 
    stroke-linejoin="round"
  />

  <path 
    d="M5.5 16L8.5 10" 
    stroke="currentColor" 
    stroke-width="1.5" 
    stroke-linecap="round" 
    stroke-linejoin="round"
  />

  <path 
    d="M11.5 9.5L14.2414 12.6098" 
    stroke="currentColor" stroke-width="1.5" 
    stroke-linecap="round" 
    stroke-linejoin="round"
  />

  <path 
    d="M16.6287 11.9779L18.5 7.5" 
    stroke="currentColor" stroke-width="1.5" 
    stroke-linecap="round" stroke-linejoin="round"
    />
    
</svg>
