  
<svg viewBox="0 0 24 24" fill="none" xmlns="http://www.w3.org/2000/svg">
  <path 
    d="M5 21H19.7143L15.2143 17.1429H14.9286C13.5084 17.1429 12.3571 15.9916 12.3571 14.5714V14.3929C12.3571 13.0713 13.4285 12 14.75 12C16.0715 12 17.1429 13.0713 17.1429 14.3929V15.8571L21 19.0714V5C21 3.89543 20.1046 3 19 3H15.5714L11.0714 7.5V7.82143C11.0714 9.06407 10.0641 10.0714 8.82143 10.0714C7.57879 10.0714 6.57143 9.06407 6.57143 7.82143C6.57143 6.57879 7.57879 5.57143 8.82143 5.57143H9.78571L12.3571 3H5C3.89543 3 3 3.89543 3 5V19C3 20.1046 3.89543 21 5 21Z" 
    stroke="currentColor" 
    stroke-width="1.5" 
    stroke-linecap="round" 
    stroke-linejoin="round"
  />
</svg>
 