<svg viewBox="0 0 24 26" fill="none" xmlns="http://www.w3.org/2000/svg">
  <path 
    d="M19.9965 9.00276C20.195 14.5972 11.9982 25 11.9982 25C11.9982 25 4.20678 15.4 4 9.00276C4 6.8803 4.84267 4.84476 6.34263 3.34395C7.84258 1.84315 9.87696 1 11.9982 1C14.1195 1 16.1539 1.84315 17.6538 3.34395C19.1538 4.84476 19.9965 6.8803 19.9965 9.00276V9.00276Z" 
    stroke="currentColor" 
    stroke-width="1.5" 
    stroke-linecap="round" 
    stroke-linejoin="round"
  />

  <path 
    d="M12.0033 13.4028C14.2125 13.4028 16.0033 11.612 16.0033 9.40283C16.0033 7.19369 14.2125 5.40283 12.0033 5.40283C9.79419 5.40283 8.00333 7.19369 8.00333 9.40283C8.00333 11.612 9.79419 13.4028 12.0033 13.4028Z" 
    stroke="currentColor" 
    stroke-width="1.5" stroke-linecap="round" stroke-linejoin="round"
  />
  
</svg>
