<svg xmlns="http://www.w3.org/2000/svg" width="119" height="48" viewBox="0 0 119 48" fill="none">
<rect x="110.652" y="34.734" width="8.34521" height="8.41558" fill="#01C4FA"/>
<path fill-rule="evenodd" clip-rule="evenodd" d="M69.7241 29.7471C69.2052 27.9249 68.9258 25.9883 68.9258 23.9809C68.9258 13.2222 76.9519 4.50037 86.8525 4.50037C98.2986 4.50037 104.779 13.2222 104.779 23.9809C104.779 24.772 104.736 25.5521 104.652 26.3185H78.9709C79.1274 27.5706 79.4077 28.7253 79.8338 29.7471C81.0256 32.6048 83.3584 34.4224 87.3162 34.4224C91.2739 34.4224 93.6066 32.6048 94.7984 29.7471H94.8887L104.161 32.4837C101.155 38.9819 94.8106 43.4614 87.4707 43.4614C79.1397 43.4614 72.0918 37.6908 69.7516 29.7471H69.7241ZM79.1672 19.7731H95.4651C94.631 15.5845 92.2219 12.6043 87.3162 12.6043C82.4104 12.6043 80.0013 15.5845 79.1672 19.7731Z" fill="#DB0C8E"/>
<path fill-rule="evenodd" clip-rule="evenodd" d="M32.0171 29.7471C31.4982 27.9249 31.2188 25.9883 31.2188 23.9809C31.2188 13.2222 39.2448 4.50037 49.1455 4.50037C60.5916 4.50037 67.0723 13.2222 67.0723 23.9809C67.0723 24.772 67.0289 25.5521 66.9445 26.3185H41.2639C41.4204 27.5706 41.7007 28.7253 42.1268 29.7471C43.3186 32.6048 45.6514 34.4224 49.6091 34.4224C53.5669 34.4224 55.8996 32.6048 57.0914 29.7471H57.1816L66.4535 32.4837C63.4476 38.9819 57.1036 43.4614 49.7637 43.4614C41.4327 43.4614 34.3847 37.6908 32.0446 29.7471H32.0171ZM41.4602 19.7731H57.7581C56.9239 15.5845 54.5149 12.6043 49.6091 12.6043C44.7034 12.6043 42.2943 15.5845 41.4602 19.7731Z" fill="#0C4070"/>
<path d="M1.85449 5.59131V13.6952H17.6177L13.7541 19.6173H6.49072V26.1627H9.58154L0 40.6562V42.0588H30.9082V34.1108H14.0632L19.1631 26.1627H26.272V19.6173H23.3357L31.6809 6.99391V5.59131H1.85449Z" fill="#01C4FA"/>
</svg>


