<svg xmlns="http://www.w3.org/2000/svg" viewBox="0 0 24 25" fill="none">
  <g opacity="0.8">
    <path
      d="M15.5 19.6958C14.4428 20.2109 13.2552 20.5 12 20.5C7.58172 20.5 4 16.9183 4 12.5C4 8.08172 7.58172 4.5 12 4.5C16.4183 4.5 19.5 7.58172 19.5 12C19.5 13.3333 19.284 15.608 17.5 16.5C16.5 17 14.5 16.5 14.5 15.5M14.5 15.5C14.5 14.7 14.5 11.1667 14.5 9.5C13.6667 9 11.6 8.3 10 9.5C8.1792 10.8656 8.68377 13.8675 9 14.5C9.5 15.5 10.5 17 14.5 15.5Z"
      stroke="currentColor"
      stroke-width="1.5"
      stroke-linecap="round"
      stroke-linejoin="round"
    />
  </g>
</svg>
  