<svg viewBox="0 0 24 24" fill="none" xmlns="http://www.w3.org/2000/svg">
  <path
    d="M8.65218 10.6387L11.6801 12.1862L13.295 13.0115L14.3043 13.5273V20.1299"
    stroke="currentColor"
    stroke-width="1.5"
    stroke-linecap="round"
    stroke-linejoin="round"
  />
  <path
    d="M19.9565 10.6387V17.2413L14.3043 20.13V13.5273"
    stroke="currentColor"
    stroke-width="1.5"
    stroke-linecap="round"
    stroke-linejoin="round"
  />
  <path
    d="M14.3043 13.1739V6.57127L13.295 6.05544L11.6801 5.23011L8.65218 3.68262V10.2852"
    stroke="currentColor"
    stroke-width="1.5"
    stroke-linecap="round"
    stroke-linejoin="round"
  />
  <path
    d="M19.9565 3.68227L13.9903 1L8.65218 3.68227"
    stroke="currentColor"
    stroke-width="1.5"
    stroke-linecap="round"
    stroke-linejoin="round"
  />
  <path
    d="M16.0706 5.66857L14.3043 6.57127V13.1739L19.9565 10.2852V3.68262L17.9642 4.70081"
    stroke="currentColor"
    stroke-width="1.5"
    stroke-linecap="round"
    stroke-linejoin="round"
  />
  <path
    d="M8.65216 23.0001V16.3974L7.64285 15.8816L6.02794 15.0563L3 13.5088V20.1114L8.65216 23.0001Z"
    stroke="currentColor"
    stroke-width="1.5"
    stroke-linecap="round"
    stroke-linejoin="round"
  />
  <path
    d="M14.3043 13.5084L8.33816 10.8262L3 13.5084"
    stroke="currentColor"
    stroke-width="1.5"
    stroke-linecap="round"
    stroke-linejoin="round"
  />
  <path
    d="M8.65216 23.0001V16.3974L10.4185 15.4947L12.312 14.527L14.3043 13.5088V20.1114L8.65216 23.0001Z"
    stroke="currentColor"
    stroke-width="1.5"
    stroke-linecap="round"
    stroke-linejoin="round"
  />
</svg>
  