<svg viewBox="0 0 16 18" fill="none" xmlns="http://www.w3.org/2000/svg">
  <path
    d="M12.045 1.88891L11.2565 3.25452M8.57539 10.4652L6.0605 14.8212L4.20957 15.4502L3.82886 13.5327L6.34375 9.17681M9.47707 8.9035L12.368 3.89624L10.1364 2.6078L7.24543 7.61506L9.47707 8.9035Z"
    stroke="currentColor"
    stroke-width="1.5"
    stroke-linecap="round"
    stroke-linejoin="round"
  />
  <path
    d="M6.01184 6.57862C5.80473 6.93733 5.34604 7.06024 4.98732 6.85313C4.6286 6.64603 4.50569 6.18733 4.7128 5.82862L6.01184 6.57862ZM7.0706 3.24478L6.42108 2.86978C6.5464 2.65273 6.77184 2.51262 7.02194 2.49636L7.0706 3.24478ZM4.7128 5.82862L6.42108 2.86978L7.72012 3.61978L6.01184 6.57862L4.7128 5.82862ZM7.02194 2.49636L9.82536 2.31408L9.92269 3.81092L7.11927 3.9932L7.02194 2.49636Z"
    fill="currentColor"
  />
</svg>
