<svg xmlns="http://www.w3.org/2000/svg" viewBox="0 0 24 25" fill="none">
  <g opacity="0.8">
    <path
      d="M5.57478 4.11017L6.40641 3.715C6.77584 3.53945 7.21781 3.64841 7.46331 3.97557L9.37847 6.52774C9.87316 7.18697 9.80771 8.10967 9.22491 8.69248C8.54447 9.62706 8.55932 10.8978 9.26142 11.8162V11.8162C10.1728 13.0083 11.2386 14.0741 12.4307 14.9855V14.9855C13.3491 15.6876 14.6198 15.7024 15.5544 15.022C16.1372 14.4392 17.0599 14.3737 17.7192 14.8684L20.2713 16.7836C20.5985 17.0291 20.7074 17.4711 20.5319 17.8405L20.1367 18.6721C19.9861 18.9891 19.7637 19.2667 19.4873 19.4828C18.3204 20.3951 16.7842 20.686 15.3646 20.2637L14.7601 20.0838C12.252 19.3376 9.9696 17.9779 8.11932 16.1276C6.26903 14.2773 4.90928 11.9949 4.16309 9.48684L3.98322 8.88227C3.56086 7.46268 3.85183 5.92645 4.76406 4.75964C4.98022 4.48316 5.25779 4.26079 5.57478 4.11017Z"
      stroke="currentColor"
      stroke-width="1.5"
      stroke-linecap="round"
      stroke-linejoin="round"
    />
  </g>
</svg>
  