<svg viewBox="0 0 24 24" fill="none" xmlns="http://www.w3.org/2000/svg">

  <path 
    d="M13.8138 1.0423C14.6888 1.25375 15.467 1.74952 16.0238 2.45032C16.5806 3.15113 16.8839 4.01648 16.8851 4.908V9.01212C16.8851 9.53614 16.7807 10.055 16.5778 10.539C16.3749 11.0231 16.0776 11.4627 15.7028 11.8329C15.328 12.203 14.8831 12.4964 14.3936 12.6961C13.9041 12.8959 13.3797 12.9981 12.8502 12.997H11.6113C10.5435 12.997 9.51936 12.5772 8.76428 11.8299C8.0092 11.0826 7.585 10.069 7.585 9.01212V4.908C7.58727 3.85183 8.0122 2.83956 8.76679 2.09273C9.52138 1.3459 10.5442 0.925345 11.6113 0.923096" 
    stroke="currentColor" 
    stroke-width="1.5" 
    stroke-linecap="round" 
    stroke-linejoin="round"
  />

  <path 
    d="M7.87749 4.08211L10.2004 2.93262C10.2004 2.93262 10.5101 6.09159 16.7474 5.37635" 
    stroke="currentColor" 
    stroke-width="1.5" 
    stroke-linecap="round" 
    stroke-linejoin="round"
  />

  <path 
    d="M14.2698 12.9968V15.0148C14.2675 15.5486 14.0517 16.0597 13.6695 16.4363C13.2874 16.8129 12.7701 17.0243 12.2308 17.0243V17.0243C11.6923 17.0243 11.1759 16.8126 10.7951 16.4357C10.4143 16.0589 10.2004 15.5478 10.2004 15.0148V12.9968" 
    stroke="currentColor" 
    stroke-width="1.5" 
    stroke-linecap="round" 
    stroke-linejoin="round"
  />

  <path 
    d="M9.70143 21.2307H4.38461C4.39104 19.6311 4.96611 18.0847 6.00902 16.8625C7.05192 15.6404 8.49614 14.8206 10.0886 14.5466" 
    stroke="currentColor" 
    stroke-width="1.5" 
    stroke-linecap="round" 
    stroke-linejoin="round"
  />

  <path 
    d="M14.4332 14.5466C16.0146 14.833 17.4448 15.6583 18.4756 16.8792C19.5065 18.1001 20.073 19.6396 20.0769 21.2307H13.8138" 
    stroke="currentColor" 
    stroke-width="1.5" 
    stroke-linecap="round" 
    stroke-linejoin="round"
  />

</svg>
