<svg viewBox="0 0 24 24" fill="none" xmlns="http://www.w3.org/2000/svg">
<path d="M12 19C12.197 19.0001 12.3922 19.0389 12.5742 19.1144C12.7562 19.1899 12.9216 19.3005 13.0609 19.4398C13.2002 19.5792 13.3106 19.7447 13.386 19.9267C13.4613 20.1088 13.5001 20.304 13.5 20.501C13.4999 20.698 13.4611 20.8932 13.3856 21.0752C13.3101 21.2572 13.1995 21.4226 13.0602 21.5619C12.9208 21.7012 12.7553 21.8116 12.5733 21.887C12.3912 21.9623 12.196 22.0011 11.999 22.001C11.601 22.0009 11.2194 21.8427 10.9381 21.5612C10.6568 21.2797 10.4989 20.898 10.499 20.5C10.4991 20.102 10.6573 19.7204 10.9388 19.4391C11.2203 19.1578 11.602 18.9999 12 19V19ZM12 2C13.5913 2 15.1174 2.63214 16.2426 3.75736C17.3679 4.88258 18 6.4087 18 8C18 10.165 17.247 11.29 15.326 12.923C13.399 14.56 13 15.297 13 17H11C11 14.526 11.787 13.305 14.031 11.399C15.548 10.11 16 9.434 16 8C16 5.79 14.21 4 12 4C9.79 4 8 5.79 8 8V9H6V8C6 6.4087 6.63214 4.88258 7.75736 3.75736C8.88258 2.63214 10.4087 2 12 2V2Z" fill="currentColor"/>
</svg>
