<svg viewBox="0 0 26 24" fill="none" xmlns="http://www.w3.org/2000/svg">

  <path 
    d="M4.81062 18.0816H1V4H24.36V18.0816H9.08206" 
    stroke="currentColor" 
    stroke-width="1.5" 
    stroke-linecap="round" 
    stroke-linejoin="round"
  />

  <path 
    d="M18.8479 6.22437H6.49439C6.5063 6.84658 6.27168 7.44826 5.8417 7.89816C5.41172 8.34807 4.82128 8.60968 4.19916 8.62594V13.4468C4.82207 13.4654 5.41251 13.7289 5.84225 14.1802C6.272 14.6316 6.50634 15.2342 6.49439 15.8573H18.8479C18.842 15.5465 18.8974 15.2377 19.0109 14.9483C19.1245 14.659 19.2939 14.3949 19.5095 14.1711C19.7251 13.9472 19.9827 13.768 20.2675 13.6438C20.5524 13.5195 20.859 13.4526 21.1697 13.4468V8.6348C20.859 8.62904 20.5524 8.56211 20.2675 8.43785C19.9827 8.31358 19.7251 8.13441 19.5095 7.91057C19.2939 7.68673 19.1245 7.4226 19.0109 7.13328C18.8974 6.84396 18.842 6.5351 18.8479 6.22437Z" 
    stroke="currentColor" 
    stroke-width="1.5" 
    stroke-linecap="round" 
    stroke-linejoin="round"
  />

  <path 
    d="M12.6799 13.6951C14.1482 13.6951 15.3385 12.5048 15.3385 11.0365C15.3385 9.56821 14.1482 8.37793 12.6799 8.37793C11.2116 8.37793 10.0214 9.56821 10.0214 11.0365C10.0214 12.5048 11.2116 13.6951 12.6799 13.6951Z" 
    stroke="currentColor" 
    stroke-width="1.5" 
    stroke-linecap="round" 
    stroke-linejoin="round"
  />

  <path 
    d="M3.49902 16.3181L5.42206 18.0905L3.64968 20.1996" 
    stroke="currentColor" 
    stroke-width="1.5" 
    stroke-linecap="round" 
    stroke-linejoin="round"
  />

</svg>
