<svg viewBox="0 0 24 24" fill="none" xmlns="http://www.w3.org/2000/svg">

  <path 
    d="M4.66666 5.54541L4.66666 6.93177M4.66666 19.4545L4.66666 12.5" 
    stroke="currentColor" 
    stroke-width="1.5" 
    stroke-linecap="round" 
    stroke-linejoin="round"
  />

  <path 
    d="M4.66668 11.7273C5.8817 11.7273 6.86667 10.6894 6.86667 9.40913C6.86667 8.12883 5.8817 7.09094 4.66668 7.09094C3.45165 7.09094 2.46667 8.12883 2.46667 9.40913C2.46667 10.6894 3.45165 11.7273 4.66668 11.7273Z" 
    stroke="currentColor" 
    stroke-width="1.5" 
    stroke-miterlimit="10" 
    stroke-linecap="round"
  />

  <path 
    d="M19.3333 5.54541L19.3333 6.93177M19.3333 19.4545L19.3333 12.5" 
    stroke="currentColor" 
    stroke-width="1.5" 
    stroke-linecap="round" 
    stroke-linejoin="round"
  />

  <path 
    d="M19.3333 11.7273C20.5484 11.7273 21.5333 10.6894 21.5333 9.40913C21.5333 8.12883 20.5484 7.09094 19.3333 7.09094C18.1183 7.09094 17.1333 8.12883 17.1333 9.40913C17.1333 10.6894 18.1183 11.7273 19.3333 11.7273Z" 
    stroke="currentColor" 
    stroke-width="1.5" 
    stroke-miterlimit="10" 
    stroke-linecap="round"
  />

  <path 
    d="M12 5.54541L12 11.5681M12 19.4545L12 17.1363" 
    stroke="currentColor" 
    stroke-width="1.5" 
    stroke-linecap="round" 
    stroke-linejoin="round"
  />

  <path 
    d="M12 16.3637C13.215 16.3637 14.2 15.3258 14.2 14.0455C14.2 12.7652 13.215 11.7273 12 11.7273C10.785 11.7273 9.79999 12.7652 9.79999 14.0455C9.79999 15.3258 10.785 16.3637 12 16.3637Z" 
    stroke="currentColor" 
    stroke-width="1.5" 
    stroke-miterlimit="10"
    stroke-linecap="round"
  />

</svg>
