<svg viewBox="0 0 24 24" fill="none" xmlns="http://www.w3.org/2000/svg">
  <path d="M18.1738 20.5V19.2595" stroke="currentColor" stroke-width="1.5" stroke-linecap="round"/>
  <path d="M18.1738 12.7402V11.4997" stroke="currentColor" stroke-width="1.5" stroke-linecap="round"/>
  <path d="M16.3133 17.8583L16.3471 17.9599C16.6047 18.7327 17.3279 19.2539 18.1424 19.2539H18.4674C19.3331 19.2539 20.0348 18.5522 20.0348 17.6865V17.6865C20.0348 16.9673 19.5453 16.3404 18.8476 16.1659L17.3133 15.7824C16.7256 15.6354 16.3133 15.1074 16.3133 14.5015V14.5015C16.3133 13.5293 17.1014 12.7412 18.0736 12.7412H18.1967C19.277 12.7412 20.2186 13.4764 20.4806 14.5245L20.5 14.602" stroke="currentColor" stroke-width="1.5" stroke-linecap="round" stroke-linejoin="round"/>
  <path d="M12 21.2505V10.9648L10.3929 10.1613L7.82143 8.87556L3 6.46484V16.7506L12 21.2505Z" stroke="currentColor" stroke-width="1.5" stroke-linecap="round" stroke-linejoin="round"/>
  <path d="M21 6.46366L11.5 2.28516L3 6.46366" stroke="currentColor" stroke-width="1.5" stroke-linecap="round" stroke-linejoin="round"/>
  <path d="M20.6646 5.79402C20.8971 5.67778 21.1732 5.6902 21.3943 5.82686C21.6154 5.96351 21.75 6.20491 21.75 6.46484V9.53721C21.75 9.99477 21.3438 10.3457 20.8911 10.2793C20.5229 10.2252 20.25 9.90936 20.25 9.53721V7.67837L18.1631 8.72183C17.7926 8.90708 17.3421 8.75691 17.1568 8.38642C16.9716 8.01594 17.1218 7.56543 17.4922 7.38019L20.6646 5.79402Z" fill="currentColor"/>
  <path d="M14.3117 20.5746C14.3998 19.9747 13.7766 19.5237 13.2343 19.7949L12.75 20.037V11.4284L15.1479 10.2294C15.5184 10.0442 15.6686 9.59367 15.4833 9.22318C15.2981 8.8527 14.8476 8.70253 14.4771 8.88777L11.6646 10.294C11.4105 10.4211 11.25 10.6808 11.25 10.9648V21.2506C11.25 21.5105 11.3846 21.7519 11.6057 21.8885C11.8268 22.0252 12.1029 22.0376 12.3354 21.9214L13.9051 21.1365C14.1243 21.0269 14.2761 20.8171 14.3117 20.5746Z" fill="currentColor"/>
</svg>
