<svg viewBox="0 0 88 88" fill="none" xmlns="http://www.w3.org/2000/svg">

  <path 
    d="M43.9993 70.6083V84.0008L3.99945 65.0166M3.99945 48.3203V21.624L14.7137 26.7091" 
    stroke="currentColor" 
    stroke-width="1.5" 
    stroke-linecap="round" 
    stroke-linejoin="round"
  />

  <path 
    d="M83.9991 21.6279L41.7771 4L3.99945 21.6279" 
    stroke="currentColor" 
    stroke-width="1.5" 
    stroke-linecap="round" 
    stroke-linejoin="round"
  />

  <path 
    d="M43.9999 70.6092V84.0018L83.9997 65.0175V21.625L77.7497 24.5913" 
    stroke="currentColor" 
    stroke-width="1.5" 
    stroke-linecap="round"
    stroke-linejoin="round"
  />

  <path 
    d="M78.9997 56.625L66.4997 62.5576M78.9997 60.625L66.4997 66.5576M78.9997 52.625L72.7497 55.5913L69.6247 57.0745" 
    stroke="currentColor" 
    stroke-width="1.5" 
    stroke-linecap="round"
    stroke-linejoin="round"
  />

  <path 
    d="M21.5444 28.9833L24.9206 23.7722C29.5354 25.1289 50.2422 30.7204 50.2422 30.7204L38.7631 38.6413C38.7631 38.6413 25.7647 31.0157 21.5444 28.9833Z"
    stroke="currentColor" 
    stroke-width="1.5"
    stroke-linecap="round" 
    stroke-linejoin="round"
  />

  <path 
    d="M47.7101 29.8521C51.6264 27.8892 62.1602 23.1471 71.3435 26.378C73.403 27.1249 73.9938 27.7676 74.1626 28.4103C75.3105 33.1872 54.4625 42.0113 54.4625 42.0113C54.4625 42.0113 35.0493 49.828 28.2969 51.565C24.0984 52.5781 19.7061 52.3371 15.6361 50.8702C15.6361 50.8702 14.792 49.828 19.8564 46.3539L15.6361 38.8325L18.1683 35.9317L28.6345 41.247L35.0493 37.6687" 
    stroke="currentColor"
    stroke-width="1.5"
    stroke-linecap="round" 
    stroke-linejoin="round"
  />

  <path 
    d="M64.4375 57.4583L61.2149 40.2742" 
    stroke="currentColor" 
    stroke-width="1.5" 
    stroke-linecap="round" 
    stroke-linejoin="round"
  />

  <path 
    d="M47.71 45.4851L58.6827 60.2499L64.3885 57.6444" 
    stroke="currentColor" 
    stroke-width="1.5" 
    stroke-linecap="round"
    stroke-linejoin="round"
  />

  <path 
    d="M1.99945 57.5L9.99945 54.25L11.9995 53.4375" 
    stroke="currentColor" 
    stroke-width="1.5" 
    stroke-linecap="round"
    stroke-linejoin="round"
  />

  <path 
    d="M9.49944 50.2261L6.35238 51.4999L3.26415 52.7499L1.72003 53.3749" 
    stroke="currentColor" 
    stroke-width="1.5" 
    stroke-linecap="round" 
    stroke-linejoin="round"
  />

  <path 
    d="M6.49945 59.8691L4.99945 60.4762M10.1245 58.4018L13.7495 56.9345L17.3745 55.4673L19.187 54.7336" 
    stroke="currentColor" 
    stroke-width="1.5" 
    stroke-linecap="round"
    stroke-linejoin="round"
  />

</svg>
