<svg viewBox="0 0 10 6" fill="currentColor" xmlns="http://www.w3.org/2000/svg">
<path d="M5 1L1 5L9 5L5 1Z"/>
<path d="M1 5L0.46967 4.46967C0.255172 4.68417 0.191005 5.00676 0.307091 5.28701C0.423176 5.56727 0.696653 5.75 1 5.75L1 5ZM5 1L5.53033 0.46967C5.23744 0.176776 4.76256 0.176777 4.46967 0.46967L5 1ZM9 5L9 5.75C9.30335 5.75 9.57682 5.56727 9.69291 5.28701C9.809 5.00675 9.74483 4.68417 9.53033 4.46967L9 5ZM1.53033 5.53033L5.53033 1.53033L4.46967 0.46967L0.46967 4.46967L1.53033 5.53033ZM4.46967 1.53033L8.46967 5.53033L9.53033 4.46967L5.53033 0.46967L4.46967 1.53033ZM1 5.75L9 5.75L9 4.25L1 4.25L1 5.75Z"/>
</svg>
