<svg viewBox="0 0 24 24" fill="none" xmlns="http://www.w3.org/2000/svg">

  <path 
    d="M7.5 4.5H4C3.44772 4.5 3 4.94772 3 5.5V21.5C3 22.0523 3.44772 22.5 4 22.5H11M16.5 4.5H20C20.5523 4.5 21 4.94772 21 5.5V11.5" 
    stroke="currentColor" 
    stroke-width="1.5" 
    stroke-linecap="round" 
    stroke-linejoin="round"
  />

  <path 
    d="M6.9429 10.75L16.6712 10.75" 
    stroke="currentColor" stroke-width="1.5" 
    stroke-linecap="round" 
    stroke-linejoin="round"
  />

  <path 
    d="M6.9429 14.5L10.4804 14.5" 
    stroke="currentColor" 
    stroke-width="1.5" 
    stroke-linecap="round" 
    stroke-linejoin="round"
  />

  <path 
    d="M14.25 2.25C14.25 2.05109 14.171 1.86032 14.0303 1.71967C13.8897 1.57902 13.6989 1.5 13.5 1.5H10.5C10.3011 1.5 10.1103 1.57902 9.96967 1.71967C9.82902 1.86032 9.75 2.05109 9.75 2.25C9.75 2.44891 9.67098 2.63968 9.53033 2.78033C9.38968 2.92098 9.19891 3 9 3H8.25C8.05109 3 7.86032 3.07902 7.71967 3.21967C7.57902 3.36032 7.5 3.55109 7.5 3.75V5.75C7.5 5.94891 7.57902 6.13968 7.71967 6.28033C7.86032 6.42098 8.05109 6.5 8.25 6.5H15.75C15.9489 6.5 16.1397 6.42098 16.2803 6.28033C16.421 6.13968 16.5 5.94891 16.5 5.75V3.75C16.5 3.55109 16.421 3.36032 16.2803 3.21967C16.1397 3.07902 15.9489 3 15.75 3H15C14.8011 3 14.6103 2.92098 14.4697 2.78033C14.329 2.63968 14.25 2.44891 14.25 2.25Z" 
    stroke="currentColor" 
    stroke-width="1.5" 
    stroke-miterlimit="10"
  />

  <path 
    d="M18 23C20.7614 23 23 20.7614 23 18C23 15.2386 20.7614 13 18 13C15.2386 13 13 15.2386 13 18C13 20.7614 15.2386 23 18 23Z" 
    fill="#01C4FA" 
    stroke="currentColor" 
    stroke-width="1.5" 
    stroke-linecap="round" 
    stroke-linejoin="round"
  />

  <path 
    d="M20.5 17L17.5 20L15.4583 18.05" 
    stroke="currentColor" 
    stroke-width="1.5" 
    stroke-linecap="round" 
    stroke-linejoin="round"
  />

</svg>
