<svg viewBox="0 0 24 24" fill="none" xmlns="http://www.w3.org/2000/svg">

  <path 
    d="M16.5 20.4998L16.5 17.4998C16.5 15.0145 14.4853 12.9998 12 12.9998V12.9998C9.51472 12.9998 7.5 15.0145 7.5 17.4998L7.5 20.4998" 
    stroke="currentColor" 
    stroke-width="1.5" 
    stroke-linecap="round" 
    stroke-linejoin="round"
  />

  <rect 
    x="10.5" 
    y="6" 
    width="3" 
    height="4.5" 
    rx="1.5" 
    stroke="currentColor" 
    stroke-width="1.5" 
    stroke-linecap="round" 
    stroke-linejoin="round"
  />

  <path 
    d="M22.5 17.4998V14.4998C22.5 12.0145 20.4853 9.99976 18 9.99976C17.5681 9.99976 17.1505 10.0606 16.7551 10.1742" 
    stroke="currentColor" 
    stroke-width="1.5" 
    stroke-linecap="round" 
    stroke-linejoin="round"
  />

  <rect 
    x="16.5" 
    y="3" 
    width="3" 
    height="4.5" 
    rx="1.5" 
    stroke="currentColor" 
    stroke-width="1.5" 
    stroke-linecap="round" 
    stroke-linejoin="round"
  />

  <path 
    d="M1.5 17.4998V14.4998C1.5 12.0145 3.51472 9.99976 6 9.99976C6.43187 9.99976 6.84952 10.0606 7.24487 10.1742" 
    stroke="currentColor" 
    stroke-width="1.5" 
    stroke-linecap="round" 
    stroke-linejoin="round"
  />

  <rect 
    x="4.5" 
    y="3" 
    width="3" 
    height="4.5" 
    rx="1.5" 
    stroke="currentColor" 
    stroke-width="1.5" 
    stroke-linecap="round" 
    stroke-linejoin="round"
  />

</svg>
