<svg viewBox="0 0 24 24" fill="none" xmlns="http://www.w3.org/2000/svg">

  <path 
    d="M3.38508 5H21.5786L23 9.64903H13.9274L12 5.22138L10.6935 10H2L3.38508 5Z" 
    stroke="currentColor" 
    stroke-width="1.5" 
    stroke-linecap="round" 
    stroke-linejoin="round"
  />

  <path 
    d="M22 10V11.5M3 10.3161V17H12.5" 
    stroke="currentColor" 
    stroke-width="1.5" 
    stroke-linecap="round" 
    stroke-linejoin="round"
  />

  <path 
    d="M12 5V17" 
    stroke="currentColor" 
    stroke-width="1.5" 
    stroke-linecap="round" 
    stroke-linejoin="round"
  />

  <path 
    d="M20.9987 16.001C21.0731 18.099 17.9993 22 17.9993 22C17.9993 22 15.0775 18.4 15 16.001C15 15.2051 15.316 14.4418 15.8785 13.879C16.441 13.3162 17.2039 13 17.9993 13C18.7948 13 19.5577 13.3162 20.1202 13.879C20.6827 14.4418 20.9987 15.2051 20.9987 16.001Z" 
    fill="#01C4FA" 
    stroke="currentColor" 
    stroke-width="1.3" 
    stroke-linecap="round" 
    stroke-linejoin="round"
  />

  <circle 
    cx="18" 
    cy="16" 
    r="1" 
    fill="currentColor"
  />

</svg>
