<svg viewBox="0 0 56 40" fill="none" xmlns="http://www.w3.org/2000/svg">

  <path
    d="M22 5H18C16.3431 5 15 6.34315 15 8V33C15 34.6569 16.3431 36 18 36H24M34 5H38C39.6569 5 41 6.34315 41 8V33C41 34.6569 39.6569 36 38 36H32"
    stroke="currentColor"
    stroke-width="1.5"
    stroke-linecap="round"
    stroke-linejoin="round"
  />

  <path
    d="M28.0002 37.0354L28.0002 28.0002"
    stroke="currentColor"
    stroke-width="1.5"
    stroke-linecap="round"
    stroke-linejoin="round"
  />

  <path
    d="M24.6669 30.667L28.0002 28.0003L31.3336 30.667"
    stroke="currentColor"
    stroke-width="1.5"
    stroke-linecap="round"
    stroke-linejoin="round"
  />

  <path
    d="M31 2C31 1.73478 30.8946 1.48043 30.7071 1.29289C30.5196 1.10536 30.2652 1 30 1H26C25.7348 1 25.4804 1.10536 25.2929 1.29289C25.1054 1.48043 25 1.73478 25 2V2C25 2.26522 24.8946 2.51957 24.7071 2.70711C24.5196 2.89464 24.2652 3 24 3H23C22.7348 3 22.4804 3.10536 22.2929 3.29289C22.1054 3.48043 22 3.73478 22 4V8C22 8.26522 22.1054 8.51957 22.2929 8.70711C22.4804 8.89464 22.7348 9 23 9H33C33.2652 9 33.5196 8.89464 33.7071 8.70711C33.8946 8.51957 34 8.26522 34 8V4C34 3.73478 33.8946 3.48043 33.7071 3.29289C33.5196 3.10536 33.2652 3 33 3H32C31.7348 3 31.4804 2.89464 31.2929 2.70711C31.1054 2.51957 31 2.26522 31 2Z"
    stroke="currentColor"
    stroke-width="1.5"
    stroke-miterlimit="10"
  />

</svg>
